<svg width="47" height="38" viewBox="0 0 47 38" fill="none" xmlns="http://www.w3.org/2000/svg">
<path d="M14.2992 37H6.79396V7.65004H0.203946V0.388825H14.2992V37ZM20.8054 8.99245C20.8054 7.44665 21.1918 6.10424 21.9647 4.96522C22.2495 4.51775 22.758 3.92791 23.4902 3.19568C24.2631 2.42278 24.8733 1.87361 25.3207 1.54818C26.6631 0.612559 28.1479 0.14475 29.7751 0.14475H36.7922C38.4601 0.14475 40.0059 0.673578 41.4297 1.73124C42.8534 2.74821 43.9924 3.9279 44.8467 5.27031C45.4569 6.20593 45.9654 7.14155 46.3722 8.07717L39.172 10.0298C38.5211 8.56532 37.6668 7.65004 36.6092 7.28393H29.8361C29.7141 7.28393 29.47 7.44665 29.1039 7.77208C28.7785 8.09751 28.4937 8.44328 28.2496 8.8094V14.057C28.2903 14.057 28.3513 14.0367 28.4327 13.996C28.514 13.9146 28.5751 13.8536 28.6157 13.8129C29.6734 13.2027 30.4666 12.8976 30.9955 12.8976H37.5245C39.233 12.8976 40.7178 13.3451 41.9788 14.2401C42.4263 14.5655 43.0365 15.1147 43.8094 15.8876C44.5823 16.6198 45.0908 17.1893 45.3348 17.5961C46.1078 18.7351 46.4942 20.0572 46.4942 21.5623V28.5184C46.4942 30.0235 46.1078 31.3456 45.3348 32.4846C44.7247 33.4202 43.606 34.5389 41.9788 35.8406C40.5957 36.8169 39.1109 37.3051 37.5245 37.3051H29.7751C28.1886 37.3051 26.7038 36.8169 25.3207 35.8406C24.8326 35.4745 24.2021 34.9254 23.4292 34.1931C22.6969 33.4609 22.2088 32.8914 21.9647 32.4846C21.1918 31.427 20.8054 30.1252 20.8054 28.5794V8.99245ZM28.2496 21.8064V28.5794C28.453 28.9455 28.7378 29.3117 29.1039 29.6778C29.47 30.0032 29.7141 30.1659 29.8361 30.1659H37.5245C37.6465 30.1659 37.8702 30.0235 38.1957 29.7388C38.5618 29.4134 38.8465 29.0676 39.0499 28.7015V21.6233C38.8465 21.2572 38.5414 20.8911 38.1347 20.525C37.7685 20.1589 37.5245 19.9758 37.4024 19.9758H30.5683C30.2429 19.9758 29.9988 20.0165 29.8361 20.0978C29.1039 20.708 28.5751 21.2775 28.2496 21.8064Z" fill="#D5CAFF"/>
</svg>
