<svg width="12" height="8" viewBox="0 0 12 8" fill="none" xmlns="http://www.w3.org/2000/svg">
<path d="M11.0002 2.59018L6.71019 6.83018C6.61723 6.92391 6.50663 6.9983 6.38477 7.04907C6.26291 7.09984 6.1322 7.12598 6.00019 7.12598C5.86818 7.12598 5.73747 7.09984 5.61562 7.04907C5.49376 6.9983 5.38316 6.92391 5.29019 6.83018L1.05019 2.59018C0.956464 2.49722 0.88207 2.38661 0.831301 2.26476C0.780533 2.1429 0.754395 2.01219 0.754395 1.88018C0.754395 1.74817 0.780533 1.61746 0.831301 1.4956C0.88207 1.37374 0.956464 1.26314 1.05019 1.17018C1.23756 0.983927 1.49101 0.879386 1.75519 0.879386C2.01938 0.879386 2.27283 0.983927 2.46019 1.17018L6.00019 4.71018L9.54019 1.17018C9.72645 0.985434 9.97785 0.881283 10.2402 0.880178C10.3718 0.879417 10.5023 0.904642 10.6241 0.954407C10.7459 1.00417 10.8568 1.0775 10.9502 1.17018C11.0473 1.2598 11.1256 1.36776 11.1807 1.48784C11.2358 1.60791 11.2666 1.73772 11.2713 1.86975C11.2759 2.00179 11.2543 2.13344 11.2078 2.25709C11.1613 2.38074 11.0907 2.49395 11.0002 2.59018Z" fill="white"/>
</svg>
