<svg width="1885" height="1491" viewBox="0 0 1885 1491" fill="none" xmlns="http://www.w3.org/2000/svg">
<rect x="949.898" y="-43.8529" width="7.79608" height="1578.71" fill="black" fill-opacity="0.1"/>
<rect x="450.949" y="-43.8529" width="7.79608" height="1578.71" fill="black" fill-opacity="0.1"/>
<rect x="1448.85" y="-43.8529" width="7.79608" height="1578.71" fill="black" fill-opacity="0.1"/>
<rect x="201.475" y="-43.8529" width="7.79608" height="1578.71" fill="black" fill-opacity="0.1"/>
<rect x="1199.37" y="-43.8529" width="7.79608" height="1578.71" fill="black" fill-opacity="0.1"/>
<rect x="700.424" y="-43.8529" width="7.79608" height="1578.71" fill="black" fill-opacity="0.1"/>
<rect x="1698.32" y="-43.8529" width="7.79608" height="1578.71" fill="black" fill-opacity="0.1"/>
<rect x="14.3686" y="-43.8529" width="7.79608" height="1578.71" fill="black" fill-opacity="0.1"/>
<rect x="1012.27" y="-43.8529" width="7.79608" height="1578.71" fill="black" fill-opacity="0.1"/>
<rect x="513.318" y="-43.8529" width="7.79608" height="1578.71" fill="black" fill-opacity="0.1"/>
<rect x="1511.22" y="-43.8529" width="7.79608" height="1578.71" fill="black" fill-opacity="0.1"/>
<rect x="263.843" y="-43.8529" width="7.79608" height="1578.71" fill="black" fill-opacity="0.1"/>
<rect x="1261.74" y="-43.8529" width="7.79608" height="1578.71" fill="black" fill-opacity="0.1"/>
<rect x="762.792" y="-43.8529" width="7.79608" height="1578.71" fill="black" fill-opacity="0.1"/>
<rect x="1760.69" y="-43.8529" width="7.79608" height="1578.71" fill="black" fill-opacity="0.1"/>
<rect x="76.7372" y="-43.8529" width="7.79608" height="1578.71" fill="black" fill-opacity="0.1"/>
<rect x="1074.64" y="-43.8529" width="7.79608" height="1578.71" fill="black" fill-opacity="0.1"/>
<rect x="575.686" y="-43.8529" width="7.79608" height="1578.71" fill="black" fill-opacity="0.1"/>
<rect x="1573.58" y="-43.8529" width="7.79608" height="1578.71" fill="black" fill-opacity="0.1"/>
<rect x="326.212" y="-43.8529" width="7.79608" height="1578.71" fill="black" fill-opacity="0.1"/>
<rect x="1324.11" y="-43.8529" width="7.79608" height="1578.71" fill="black" fill-opacity="0.1"/>
<rect x="825.161" y="-43.8529" width="7.79608" height="1578.71" fill="black" fill-opacity="0.1"/>
<rect x="1823.06" y="-43.8529" width="7.79608" height="1578.71" fill="black" fill-opacity="0.1"/>
<rect x="139.106" y="-43.8529" width="7.79608" height="1578.71" fill="black" fill-opacity="0.1"/>
<rect x="1137" y="-43.8529" width="7.79608" height="1578.71" fill="black" fill-opacity="0.1"/>
<rect x="638.055" y="-43.8529" width="7.79608" height="1578.71" fill="black" fill-opacity="0.1"/>
<rect x="1635.95" y="-43.8529" width="7.79608" height="1578.71" fill="black" fill-opacity="0.1"/>
<rect x="388.58" y="-43.8529" width="7.79608" height="1578.71" fill="black" fill-opacity="0.1"/>
<rect x="1386.48" y="-43.8529" width="7.79608" height="1578.71" fill="black" fill-opacity="0.1"/>
<rect x="887.529" y="-43.8529" width="7.79608" height="1578.71" fill="black" fill-opacity="0.1"/>
<rect x="965.49" y="-43.8529" width="7.79608" height="1578.71" fill="black" fill-opacity="0.1"/>
<rect x="466.541" y="-43.8529" width="7.79608" height="1578.71" fill="black" fill-opacity="0.1"/>
<rect x="1464.44" y="-43.8529" width="7.79608" height="1578.71" fill="black" fill-opacity="0.1"/>
<rect x="217.067" y="-43.8529" width="7.79608" height="1578.71" fill="black" fill-opacity="0.1"/>
<rect x="1214.96" y="-43.8529" width="7.79608" height="1578.71" fill="black" fill-opacity="0.1"/>
<rect x="716.016" y="-43.8529" width="7.79608" height="1578.71" fill="black" fill-opacity="0.1"/>
<rect x="1713.91" y="-43.8529" width="7.79608" height="1578.71" fill="black" fill-opacity="0.1"/>
<rect x="29.9608" y="-43.8529" width="7.79608" height="1578.71" fill="black" fill-opacity="0.1"/>
<rect x="1027.86" y="-43.8529" width="7.79608" height="1578.71" fill="black" fill-opacity="0.1"/>
<rect x="528.91" y="-43.8529" width="7.79608" height="1578.71" fill="black" fill-opacity="0.1"/>
<rect x="1526.81" y="-43.8529" width="7.79608" height="1578.71" fill="black" fill-opacity="0.1"/>
<rect x="279.435" y="-43.8529" width="7.79608" height="1578.71" fill="black" fill-opacity="0.1"/>
<rect x="1277.33" y="-43.8529" width="7.79608" height="1578.71" fill="black" fill-opacity="0.1"/>
<rect x="778.384" y="-43.8529" width="7.79608" height="1578.71" fill="black" fill-opacity="0.1"/>
<rect x="1776.28" y="-43.8529" width="7.79608" height="1578.71" fill="black" fill-opacity="0.1"/>
<rect x="92.3294" y="-43.8529" width="7.79608" height="1578.71" fill="black" fill-opacity="0.1"/>
<rect x="1090.23" y="-43.8529" width="7.79608" height="1578.71" fill="black" fill-opacity="0.1"/>
<rect x="591.278" y="-43.8529" width="7.79608" height="1578.71" fill="black" fill-opacity="0.1"/>
<rect x="1589.18" y="-43.8529" width="7.79608" height="1578.71" fill="black" fill-opacity="0.1"/>
<rect x="341.804" y="-43.8529" width="7.79608" height="1578.71" fill="black" fill-opacity="0.1"/>
<rect x="1339.7" y="-43.8529" width="7.79608" height="1578.71" fill="black" fill-opacity="0.1"/>
<rect x="840.753" y="-43.8529" width="7.79608" height="1578.71" fill="black" fill-opacity="0.1"/>
<rect x="1838.65" y="-43.8529" width="7.79608" height="1578.71" fill="black" fill-opacity="0.1"/>
<rect x="154.698" y="-43.8529" width="7.79608" height="1578.71" fill="black" fill-opacity="0.1"/>
<rect x="1152.6" y="-43.8529" width="7.79608" height="1578.71" fill="black" fill-opacity="0.1"/>
<rect x="653.647" y="-43.8529" width="7.79608" height="1578.71" fill="black" fill-opacity="0.1"/>
<rect x="1651.55" y="-43.8529" width="7.79608" height="1578.71" fill="black" fill-opacity="0.1"/>
<rect x="404.173" y="-43.8529" width="7.79608" height="1578.71" fill="black" fill-opacity="0.1"/>
<rect x="1402.07" y="-43.8529" width="7.79608" height="1578.71" fill="black" fill-opacity="0.1"/>
<rect x="903.122" y="-43.8529" width="7.79608" height="1578.71" fill="black" fill-opacity="0.1"/>
<rect x="981.082" y="-43.8529" width="7.79608" height="1578.71" fill="black" fill-opacity="0.1"/>
<rect x="482.133" y="-43.8529" width="7.79608" height="1578.71" fill="black" fill-opacity="0.1"/>
<rect x="1480.03" y="-43.8529" width="7.79608" height="1578.71" fill="black" fill-opacity="0.1"/>
<rect x="232.659" y="-43.8529" width="7.79608" height="1578.71" fill="black" fill-opacity="0.1"/>
<rect x="1230.56" y="-43.8529" width="7.79608" height="1578.71" fill="black" fill-opacity="0.1"/>
<rect x="731.608" y="-43.8529" width="7.79608" height="1578.71" fill="black" fill-opacity="0.1"/>
<rect x="1729.51" y="-43.8529" width="7.79608" height="1578.71" fill="black" fill-opacity="0.1"/>
<rect x="45.5529" y="-43.8529" width="7.79608" height="1578.71" fill="black" fill-opacity="0.1"/>
<rect x="1043.45" y="-43.8529" width="7.79608" height="1578.71" fill="black" fill-opacity="0.1"/>
<rect x="544.502" y="-43.8529" width="7.79608" height="1578.71" fill="black" fill-opacity="0.1"/>
<rect x="1542.4" y="-43.8529" width="7.79608" height="1578.71" fill="black" fill-opacity="0.1"/>
<rect x="295.027" y="-43.8529" width="7.79608" height="1578.71" fill="black" fill-opacity="0.1"/>
<rect x="1292.93" y="-43.8529" width="7.79608" height="1578.71" fill="black" fill-opacity="0.1"/>
<rect x="793.976" y="-43.8529" width="7.79608" height="1578.71" fill="black" fill-opacity="0.1"/>
<rect x="1791.87" y="-43.8529" width="7.79608" height="1578.71" fill="black" fill-opacity="0.1"/>
<rect x="107.922" y="-43.8529" width="7.79608" height="1578.71" fill="black" fill-opacity="0.1"/>
<rect x="1105.82" y="-43.8529" width="7.79608" height="1578.71" fill="black" fill-opacity="0.1"/>
<rect x="606.871" y="-43.8529" width="7.79608" height="1578.71" fill="black" fill-opacity="0.1"/>
<rect x="1604.77" y="-43.8529" width="7.79608" height="1578.71" fill="black" fill-opacity="0.1"/>
<rect x="357.396" y="-43.8529" width="7.79608" height="1578.71" fill="black" fill-opacity="0.1"/>
<rect x="1355.29" y="-43.8529" width="7.79608" height="1578.71" fill="black" fill-opacity="0.1"/>
<rect x="856.345" y="-43.8529" width="7.79608" height="1578.71" fill="black" fill-opacity="0.1"/>
<rect x="1854.24" y="-43.8529" width="7.79608" height="1578.71" fill="black" fill-opacity="0.1"/>
<rect x="170.29" y="-43.8529" width="7.79608" height="1578.71" fill="black" fill-opacity="0.1"/>
<rect x="1168.19" y="-43.8529" width="7.79608" height="1578.71" fill="black" fill-opacity="0.1"/>
<rect x="669.239" y="-43.8529" width="7.79608" height="1578.71" fill="black" fill-opacity="0.1"/>
<rect x="1667.14" y="-43.8529" width="7.79608" height="1578.71" fill="black" fill-opacity="0.1"/>
<rect x="419.765" y="-43.8529" width="7.79608" height="1578.71" fill="black" fill-opacity="0.1"/>
<rect x="1417.66" y="-43.8529" width="7.79608" height="1578.71" fill="black" fill-opacity="0.1"/>
<rect x="918.714" y="-43.8529" width="7.79608" height="1578.71" fill="black" fill-opacity="0.1"/>
<rect x="-1.22354" y="-43.8529" width="7.79608" height="1578.71" fill="black" fill-opacity="0.1"/>
<rect x="996.675" y="-43.8529" width="7.79608" height="1578.71" fill="black" fill-opacity="0.1"/>
<rect x="497.725" y="-43.8529" width="7.79608" height="1578.71" fill="black" fill-opacity="0.1"/>
<rect x="1495.62" y="-43.8529" width="7.79608" height="1578.71" fill="black" fill-opacity="0.1"/>
<rect x="248.251" y="-43.8529" width="7.79608" height="1578.71" fill="black" fill-opacity="0.1"/>
<rect x="1246.15" y="-43.8529" width="7.79608" height="1578.71" fill="black" fill-opacity="0.1"/>
<rect x="747.2" y="-43.8529" width="7.79608" height="1578.71" fill="black" fill-opacity="0.1"/>
<rect x="1745.1" y="-43.8529" width="7.79608" height="1578.71" fill="black" fill-opacity="0.1"/>
<rect x="61.1451" y="-43.8529" width="7.79608" height="1578.71" fill="black" fill-opacity="0.1"/>
<rect x="1059.04" y="-43.8529" width="7.79608" height="1578.71" fill="black" fill-opacity="0.1"/>
<rect x="560.094" y="-43.8529" width="7.79608" height="1578.71" fill="black" fill-opacity="0.1"/>
<rect x="1557.99" y="-43.8529" width="7.79608" height="1578.71" fill="black" fill-opacity="0.1"/>
<rect x="310.62" y="-43.8529" width="7.79608" height="1578.71" fill="black" fill-opacity="0.1"/>
<rect x="1308.52" y="-43.8529" width="7.79608" height="1578.71" fill="black" fill-opacity="0.1"/>
<rect x="809.569" y="-43.8529" width="7.79608" height="1578.71" fill="black" fill-opacity="0.1"/>
<rect x="1807.47" y="-43.8529" width="7.79608" height="1578.71" fill="black" fill-opacity="0.1"/>
<rect x="123.514" y="-43.8529" width="7.79608" height="1578.71" fill="black" fill-opacity="0.1"/>
<rect x="1121.41" y="-43.8529" width="7.79608" height="1578.71" fill="black" fill-opacity="0.1"/>
<rect x="622.463" y="-43.8529" width="7.79608" height="1578.71" fill="black" fill-opacity="0.1"/>
<rect x="1620.36" y="-43.8529" width="7.79608" height="1578.71" fill="black" fill-opacity="0.1"/>
<rect x="372.988" y="-43.8529" width="7.79608" height="1578.71" fill="black" fill-opacity="0.1"/>
<rect x="1370.89" y="-43.8529" width="7.79608" height="1578.71" fill="black" fill-opacity="0.1"/>
<rect x="871.937" y="-43.8529" width="7.79608" height="1578.71" fill="black" fill-opacity="0.1"/>
<rect x="1869.84" y="-43.8529" width="7.79608" height="1578.71" fill="black" fill-opacity="0.1"/>
<rect x="185.882" y="-43.8529" width="7.79608" height="1578.71" fill="black" fill-opacity="0.1"/>
<rect x="1183.78" y="-43.8529" width="7.79608" height="1578.71" fill="black" fill-opacity="0.1"/>
<rect x="684.831" y="-43.8529" width="7.79608" height="1578.71" fill="black" fill-opacity="0.1"/>
<rect x="1682.73" y="-43.8529" width="7.79608" height="1578.71" fill="black" fill-opacity="0.1"/>
<rect x="435.357" y="-43.8529" width="7.79608" height="1578.71" fill="black" fill-opacity="0.1"/>
<rect x="1433.25" y="-43.8529" width="7.79608" height="1578.71" fill="black" fill-opacity="0.1"/>
<rect x="934.306" y="-43.8529" width="7.79608" height="1578.71" fill="black" fill-opacity="0.1"/>
</svg>
