<svg width="666" height="135" viewBox="0 0 666 135" fill="none" xmlns="http://www.w3.org/2000/svg">
<path fill-rule="evenodd" clip-rule="evenodd" d="M0 9.10107L37.8692 11.8025L56.0214 38.9952H46.8313L59.8725 56.9033L72.9136 38.9952H63.7235L81.8757 11.8025L119.745 9.10107V119.902L80.5517 114.31V78.2337L59.8725 96.8206L39.1932 78.2337V114.31L0 119.902V9.10107ZM6.0249 15.5571V112.97L33.1683 109.098V64.7279L59.8725 88.7301L86.5766 64.7279V109.098L113.72 112.97V15.5571L85.2526 17.5878L74.9748 32.9843H84.738L59.8725 67.1297L35.0069 32.9843H44.7702L34.4924 17.5878L6.0249 15.5571Z" fill="url(#paint0_linear_212_56)"/>
<path d="M164.301 12.8818V51.9239H207.809V12.8818H230.774V116.101H207.809V72.5933H164.301V116.101H141.462V12.8818H164.301ZM307.451 116.101L299.413 94.7937H261.392L253.354 116.101H231.664L269.557 12.8818H293.544L329.269 116.101H307.451ZM268.537 75.783H292.268L280.403 44.3962L268.537 75.783ZM396.306 74.5071H419.655C415.699 103.342 395.285 118.015 371.043 118.015C344.122 118.015 321.922 99.6421 321.922 64.4276C321.922 29.9786 344.122 10.7127 371.043 10.7127C395.413 10.7127 414.296 25.6406 419.144 51.286H395.285C392.606 38.3995 382.909 32.1477 371.043 32.1477C355.86 32.1477 344.122 42.3548 344.122 64.4276C344.122 86.6281 355.733 96.7076 371.043 96.7076C383.93 96.7076 394.647 89.5626 396.306 74.5071ZM474.63 54.986L518.01 116.101H492.492L460.084 70.8071L448.857 83.0556V116.101H427.167V12.8818H448.857V55.7516L488.154 12.8818H513.417L474.63 54.986ZM562.782 54.3481C579.369 58.0482 599.911 62.6414 599.911 83.3108C599.911 103.725 584.473 118.015 554.744 118.015C529.992 118.015 514.554 103.597 514.554 85.097V83.0556H539.051V85.097C539.051 94.0282 548.62 97.0903 558.189 97.0903C567.248 97.0903 576.434 94.411 576.434 85.097C576.434 77.4417 565.462 74.8899 552.703 71.8278C536.499 68.0001 516.213 63.1517 516.213 43.8858C516.213 23.8544 532.927 10.8403 558.7 10.8403C582.431 10.8403 599.018 24.4923 599.018 43.8858V45.9272H576.434V43.8858C576.434 36.1029 566.227 31.3821 556.403 31.3821C549.768 31.3821 540.072 34.5718 540.072 41.972C540.072 49.2445 550.534 51.6687 562.782 54.3481Z" fill="url(#paint1_linear_212_56)"/>
<path d="M629.109 49H621.604V19.65H615.014V12.3888H629.109V49ZM635.615 20.9925C635.615 19.4466 636.002 18.1042 636.775 16.9652C637.06 16.5178 637.568 15.9279 638.3 15.1957C639.073 14.4228 639.683 13.8736 640.131 13.5482C641.473 12.6126 642.958 12.1447 644.585 12.1447H651.602C653.27 12.1447 654.816 12.6736 656.24 13.7312C657.663 14.7482 658.802 15.9279 659.657 17.2703C660.267 18.2059 660.775 19.1416 661.182 20.0772L653.982 22.0298C653.331 20.5653 652.477 19.65 651.419 19.2839H644.646C644.524 19.2839 644.28 19.4466 643.914 19.7721C643.589 20.0975 643.304 20.4433 643.06 20.8094V26.057C643.1 26.057 643.161 26.0367 643.243 25.996C643.324 25.9146 643.385 25.8536 643.426 25.8129C644.483 25.2027 645.277 24.8976 645.806 24.8976H652.335C654.043 24.8976 655.528 25.3451 656.789 26.2401C657.236 26.5655 657.847 27.1147 658.619 27.8876C659.392 28.6198 659.901 29.1893 660.145 29.5961C660.918 30.7351 661.304 32.0572 661.304 33.5623V40.5184C661.304 42.0235 660.918 43.3456 660.145 44.4846C659.535 45.4202 658.416 46.5389 656.789 47.8406C655.406 48.8169 653.921 49.3051 652.335 49.3051H644.585C642.999 49.3051 641.514 48.8169 640.131 47.8406C639.643 47.4745 639.012 46.9254 638.239 46.1931C637.507 45.4609 637.019 44.8914 636.775 44.4846C636.002 43.427 635.615 42.1252 635.615 40.5794V20.9925ZM643.06 33.8064V40.5794C643.263 40.9455 643.548 41.3117 643.914 41.6778C644.28 42.0032 644.524 42.1659 644.646 42.1659H652.335C652.457 42.1659 652.68 42.0235 653.006 41.7388C653.372 41.4134 653.657 41.0676 653.86 40.7015V33.6233C653.657 33.2572 653.351 32.8911 652.945 32.525C652.579 32.1589 652.335 31.9758 652.212 31.9758H645.378C645.053 31.9758 644.809 32.0165 644.646 32.0978C643.914 32.708 643.385 33.2775 643.06 33.8064Z" fill="url(#paint2_linear_212_56)"/>
<defs>
<linearGradient id="paint0_linear_212_56" x1="59.8725" y1="9.10107" x2="59.8725" y2="119.902" gradientUnits="userSpaceOnUse">
<stop stop-color="white"/>
<stop offset="1" stop-color="white" stop-opacity="0.6"/>
</linearGradient>
<linearGradient id="paint1_linear_212_56" x1="369.74" y1="9.10107" x2="369.74" y2="134.101" gradientUnits="userSpaceOnUse">
<stop stop-color="white"/>
<stop offset="1" stop-color="white" stop-opacity="0.6"/>
</linearGradient>
<linearGradient id="paint2_linear_212_56" x1="637.517" y1="0" x2="637.517" y2="61" gradientUnits="userSpaceOnUse">
<stop stop-color="white"/>
<stop offset="1" stop-color="white" stop-opacity="0.6"/>
</linearGradient>
</defs>
</svg>