<svg width="122" height="111" viewBox="0 0 122 111" fill="none" xmlns="http://www.w3.org/2000/svg">
<path d="M36.8926 5.3627L51.8236 27.4635H47.4098H42.2684L45.3187 31.6023L58.521 49.5157L60.6121 52.353L62.7032 49.5157L75.9054 31.6023L78.9557 27.4635H73.8143H69.4005L84.3315 5.3627L118.626 2.94541V108.002L84.1444 103.141V69.3112V63.53L79.8218 67.3689L60.6121 84.4294L41.4023 67.3689L37.0797 63.53V69.3112V103.141L2.59766 108.002V2.94541L36.8926 5.3627Z" fill="#9175FF"/>
<path d="M36.8926 5.3627L51.8236 27.4635H47.4098H42.2684L45.3187 31.6023L58.521 49.5157L60.6121 52.353L62.7032 49.5157L75.9054 31.6023L78.9557 27.4635H73.8143H69.4005L84.3315 5.3627L118.626 2.94541V108.002L84.1444 103.141V69.3112V63.53L79.8218 67.3689L60.6121 84.4294L41.4023 67.3689L37.0797 63.53V69.3112V103.141L2.59766 108.002V2.94541L36.8926 5.3627Z" fill="url(#paint0_linear_271_12)"/>
<path d="M36.8926 5.3627L51.8236 27.4635H47.4098H42.2684L45.3187 31.6023L58.521 49.5157L60.6121 52.353L62.7032 49.5157L75.9054 31.6023L78.9557 27.4635H73.8143H69.4005L84.3315 5.3627L118.626 2.94541V108.002L84.1444 103.141V69.3112V63.53L79.8218 67.3689L60.6121 84.4294L41.4023 67.3689L37.0797 63.53V69.3112V103.141L2.59766 108.002V2.94541L36.8926 5.3627Z" stroke="white" stroke-width="5.19532"/>
<defs>
<linearGradient id="paint0_linear_271_12" x1="60.6121" y1="0.158203" x2="60.6121" y2="110.992" gradientUnits="userSpaceOnUse">
<stop stop-color="white" stop-opacity="0.8"/>
<stop offset="1" stop-color="white" stop-opacity="0.6"/>
</linearGradient>
</defs>
</svg>
