<svg width="92" height="160" viewBox="0 0 92 160" fill="none" xmlns="http://www.w3.org/2000/svg">
<g clip-path="url(#clip0_212_123)">
<mask id="mask0_212_123" style="mask-type:luminance" maskUnits="userSpaceOnUse" x="0" y="0" width="92" height="160">
<path d="M91.1494 0H0.116699V160H91.1494V0Z" fill="white"/>
</mask>
<g mask="url(#mask0_212_123)">
<path d="M5.16443 62.2653C5.16443 61.6583 6.45301 61.3955 7.31284 61.3955H84.3148C85.1746 61.3955 85.3507 61.6606 85.3507 62.2653V144.661C85.3507 145.268 84.9892 145.991 84.2267 146.27L47.3816 159.793C46.6168 160.072 45.4325 160.075 44.6654 159.8L6.81455 146.263C6.04743 145.986 5.16211 145.265 5.16211 144.661V62.2653H5.16443Z" fill="#1D539F"/>
<path d="M82.5975 90.8557V81.3999H8.05225L82.5975 90.8557Z" fill="#163E77"/>
<path d="M87.5063 77.3281C87.5063 77.3281 50.4781 89.6118 3.75781 77.3281V53.4258C46.8557 64.6839 87.5063 53.4258 87.5063 53.4258V77.3281Z" fill="white"/>
<path d="M87.5062 53.4255V77.3278C87.5062 77.3278 71.0467 82.786 46.2345 82.786C33.8262 82.786 19.332 81.4209 3.75779 77.3278V53.4255C18.1222 57.179 32.2178 58.4302 44.6238 58.4302C69.4383 58.4302 87.5039 53.4255 87.5039 53.4255M91.1147 48.6674L86.5444 49.9325C86.3498 49.986 68.59 54.8069 44.6238 54.8069C30.5236 54.8069 17.0793 53.1627 4.66628 49.9209L0.146973 48.7371V80.1232L2.84234 80.8325C16.9194 84.5325 31.5178 86.4092 46.2345 86.4092C71.3387 86.4092 87.9443 80.9976 88.6395 80.7674L91.117 79.9464V48.665L91.1147 48.6674Z" fill="#1D539F"/>
<path d="M17.6009 62.7697C17.8512 62.8162 18.0806 62.9116 18.2869 63.0511C18.4932 63.1906 18.6647 63.3558 18.7968 63.5465C18.9312 63.7372 19.0285 63.9511 19.0888 64.193C19.1491 64.4348 19.1583 64.679 19.1143 64.9279C18.6879 67.3465 18.2614 69.7651 17.835 72.1837C17.7909 72.4325 17.6959 72.6604 17.5522 72.8651C17.4062 73.0697 17.2324 73.2395 17.0308 73.3744C16.8268 73.5093 16.5974 73.6023 16.3401 73.6488C16.0829 73.6976 15.8187 73.6976 15.5498 73.6465C13.5706 73.2697 11.596 72.8581 9.62607 72.4092C9.35955 72.3488 9.1162 72.2441 8.90066 72.0953C8.68281 71.9465 8.50435 71.7697 8.36762 71.5627C8.22856 71.3558 8.13586 71.1302 8.0895 70.886C8.04315 70.6418 8.05011 70.3976 8.10805 70.1511C8.68049 67.7627 9.25062 65.3744 9.82306 62.986C9.881 62.7395 9.98529 62.5186 10.1313 62.3209C10.2773 62.1232 10.4534 61.9651 10.6574 61.8441C10.8613 61.7232 11.0862 61.6418 11.3318 61.5976C11.5775 61.5511 11.8255 61.5581 12.0734 61.6139C13.9113 62.0325 15.7538 62.4186 17.6032 62.7697H17.6009ZM16.1478 65.2255C14.9009 64.9813 13.6564 64.7209 12.4141 64.4441C12.0062 66.2976 11.5983 68.1511 11.1904 70.0023C12.4767 70.2883 13.7676 70.5581 15.0585 70.8116C15.4224 68.9488 15.7839 67.086 16.1478 65.2255Z" fill="#1D539F"/>
<path d="M30.2384 64.7188C30.2894 64.7816 30.3125 64.856 30.3033 64.9397C30.2314 65.6327 30.1596 66.3234 30.0877 67.0165C30.0785 67.1002 30.0414 67.1676 29.9765 67.2188C29.9116 67.27 29.8351 67.2909 29.7494 67.2816C27.9532 67.0909 26.1617 66.8676 24.3726 66.6141C24.3192 66.6072 24.2891 66.6234 24.2845 66.6653C24.2034 67.2351 24.1246 67.8025 24.0435 68.3723C24.0365 68.4258 24.0597 68.4537 24.113 68.463C25.485 68.6583 26.8616 68.8327 28.236 68.9932C28.3217 69.0025 28.3889 69.0397 28.4376 69.1048C28.4863 69.1699 28.5048 69.242 28.4956 69.3258C28.4214 69.9816 28.3472 70.6351 28.2754 71.2909C28.2661 71.3746 28.2313 71.442 28.1688 71.4932C28.1062 71.5444 28.032 71.5653 27.944 71.556C26.5465 71.3955 25.1489 71.2165 23.7538 71.0188C23.6981 71.0118 23.668 71.0327 23.6611 71.0862C23.4942 72.2607 23.3296 73.4351 23.1628 74.6095C23.135 74.8072 23.0145 74.8909 22.8013 74.8606C22.0249 74.749 21.2508 74.6304 20.4744 74.5072C20.2612 74.4723 20.1708 74.3583 20.201 74.1583C20.7502 70.7118 21.3018 67.2676 21.8511 63.8211C21.8835 63.6234 21.9971 63.5397 22.1964 63.5723C24.8013 63.9862 27.4132 64.3327 30.0321 64.6118C30.1155 64.6211 30.1851 64.6583 30.2361 64.7211L30.2384 64.7188Z" fill="#1D539F"/>
<path d="M40.299 65.4464C40.3546 65.5069 40.3824 65.579 40.3778 65.6627C40.35 66.3581 40.3245 67.0534 40.2967 67.7488C40.2944 67.8325 40.2619 67.9022 40.1993 67.9581C40.1368 68.0139 40.0649 68.0395 39.9792 68.0371C38.1784 67.9627 36.3776 67.8581 34.5769 67.7232C34.5236 67.7185 34.4957 67.7371 34.4911 67.779C34.4471 68.3511 34.4054 68.9255 34.3613 69.4976C34.3567 69.5511 34.3822 69.579 34.4378 69.5836C35.8168 69.6883 37.1981 69.7743 38.5817 69.8418C38.6697 69.8464 38.7369 69.879 38.7902 69.9395C38.8412 69.9999 38.8667 70.072 38.8621 70.1557C38.832 70.8139 38.7995 71.472 38.7694 72.1302C38.7647 72.2139 38.7346 72.2836 38.6767 72.3395C38.6187 72.3953 38.5446 72.4209 38.4565 72.4162C37.052 72.3464 35.6499 72.2604 34.2478 72.1534C34.1921 72.1488 34.162 72.1743 34.1597 72.2255C34.0693 73.4092 33.9812 74.5906 33.8909 75.7743C33.8769 75.9743 33.7611 76.065 33.5455 76.0488C32.7645 75.9883 31.9858 75.9209 31.2048 75.8488C30.9892 75.8302 30.8919 75.7185 30.9104 75.5185C31.2349 72.0441 31.5617 68.5697 31.8861 65.0953C31.9047 64.8953 32.0136 64.8046 32.2152 64.8232C34.8364 65.065 37.4623 65.2395 40.0881 65.3464C40.1715 65.3488 40.2434 65.3813 40.299 65.4418V65.4464Z" fill="#1D539F"/>
<path d="M44.656 76.2393C44.656 76.4393 44.5447 76.5393 44.3292 76.537C43.5482 76.5277 42.7648 76.5114 41.9838 76.4905C41.7683 76.4835 41.664 76.3811 41.6686 76.1811C41.7683 72.6928 41.8679 69.2044 41.9653 65.716C41.9699 65.516 42.0742 65.4184 42.2758 65.423C43.0059 65.4416 43.7359 65.4556 44.4659 65.4649C44.6676 65.4672 44.7672 65.5695 44.7649 65.7695C44.7278 69.2579 44.6931 72.7486 44.656 76.237V76.2393Z" fill="#1D539F"/>
<path d="M50.1583 68.2024C50.1004 68.2559 50.0726 68.3257 50.0749 68.4094C50.1143 70.1164 50.1537 71.8233 50.1931 73.5326C50.1931 73.6164 50.2278 73.6838 50.2904 73.735C50.353 73.7861 50.4295 73.8117 50.5175 73.8094C52.3067 73.7629 54.0959 73.6885 55.8828 73.5838C55.9732 73.5792 56.0496 73.6024 56.1145 73.6582C56.1794 73.7117 56.2142 73.7815 56.2188 73.8652C56.2605 74.5605 56.3023 75.2536 56.344 75.9489C56.3486 76.0326 56.3208 76.1071 56.2629 76.1675C56.2049 76.2303 56.1284 76.2629 56.038 76.2675C54.8561 76.3373 53.6718 76.3931 52.4875 76.4373C51.5141 76.4745 50.5384 76.5001 49.565 76.5187C49.463 76.5187 49.3611 76.5233 49.2591 76.5233C48.9879 76.528 48.7284 76.4838 48.485 76.3931C48.2393 76.3001 48.0261 76.1722 47.8454 76.0047C47.6623 75.8373 47.5209 75.6419 47.4189 75.414C47.3169 75.1885 47.2636 74.9489 47.2636 74.6954V74.4117C47.259 74.028 47.259 73.6419 47.2567 73.2582C47.2497 72.0303 47.2428 70.8024 47.2382 69.5745C47.2382 69.2326 47.2335 68.8885 47.2335 68.5466C47.2335 68.1396 47.2289 67.735 47.2266 67.328C47.2266 67.0745 47.2729 66.835 47.3656 66.6071C47.4606 66.3792 47.5904 66.1838 47.7596 66.0187C47.9288 65.8536 48.1258 65.721 48.3529 65.6164C48.58 65.514 48.8187 65.4582 49.0737 65.4559C49.1687 65.4559 49.2637 65.4536 49.3587 65.4512C51.3751 65.4117 53.389 65.335 55.4007 65.2164C55.4865 65.2117 55.5583 65.2373 55.6209 65.2908C55.6835 65.3443 55.7159 65.414 55.7205 65.4978C55.7623 66.1931 55.804 66.8861 55.8457 67.5815C55.8503 67.6652 55.8248 67.7396 55.7692 67.8001C55.7136 67.8629 55.6417 67.8954 55.556 67.9001C53.8317 68.0001 52.1051 68.0745 50.3762 68.1164C50.2904 68.1164 50.2186 68.1466 50.1606 68.2001L50.1583 68.2024Z" fill="#1D539F"/>
<path d="M62.0174 75.507C62.0359 75.707 61.9386 75.8163 61.7231 75.8373C60.9444 75.9094 60.1633 75.9768 59.3846 76.0396C59.1691 76.0559 59.0555 75.9652 59.0393 75.7652C58.7728 72.2861 58.5086 68.807 58.242 65.328C58.2258 65.128 58.3185 65.021 58.5202 65.0047C59.2479 64.9466 59.9756 64.8838 60.7033 64.8163C60.9026 64.7977 61.0139 64.8884 61.0324 65.0861C61.3615 68.5605 61.6883 72.0349 62.0174 75.507Z" fill="#1D539F"/>
<path d="M70.8913 63.5208C71.1416 63.4812 71.3896 63.4905 71.6306 63.5533C71.8717 63.6161 72.0872 63.7115 72.2772 63.8464C72.4673 63.9789 72.6318 64.1487 72.7709 64.3557C72.9099 64.5626 73.0003 64.7882 73.0444 65.0394C73.5496 67.9696 74.0525 70.8998 74.5578 73.8277C74.5717 73.9115 74.5531 73.9859 74.5021 74.0533C74.4511 74.1208 74.3793 74.1626 74.2889 74.1789C73.5102 74.3115 72.7292 74.4394 71.9505 74.5626C71.8601 74.5766 71.779 74.5603 71.7094 74.5115C71.6376 74.465 71.5959 74.3975 71.5843 74.3138L71.1555 71.5161C71.1416 71.4324 71.1045 71.3673 71.0396 71.3184C70.9771 71.2696 70.9006 71.251 70.8125 71.265C69.7233 71.4324 68.6317 71.5859 67.5401 71.7301C67.452 71.7417 67.3802 71.7812 67.3269 71.8464C67.2736 71.9115 67.2527 71.9859 67.262 72.0696C67.3825 73.0045 67.503 73.9417 67.6235 74.8766C67.649 75.0743 67.554 75.1882 67.3408 75.2161C66.5644 75.3161 65.7857 75.4091 65.007 75.4975C64.7914 75.5208 64.6755 75.4347 64.6524 75.2347C64.3256 72.2789 63.9988 69.3254 63.672 66.3696C63.6442 66.1184 63.6651 65.8743 63.7369 65.6394C63.8064 65.4045 63.9177 65.1952 64.0683 65.0138C64.219 64.8324 64.4021 64.6789 64.6153 64.551C64.8308 64.4254 65.0626 64.3464 65.3152 64.3138C67.1762 64.0836 69.0349 63.8184 70.8913 63.5208ZM70.7476 68.8743C70.6063 67.958 70.4672 67.0394 70.3258 66.1231C69.0743 66.3161 67.8205 66.4952 66.5644 66.658C66.6826 67.5789 66.8008 68.4975 66.9213 69.4184C68.1983 69.2533 69.4753 69.0719 70.7476 68.8743Z" fill="#1D539F"/>
<path d="M84.1805 69.4067C84.2686 69.3858 84.345 69.3974 84.4146 69.4393C84.4818 69.4835 84.5258 69.5463 84.5467 69.6277C84.7089 70.3044 84.8711 70.9812 85.0334 71.6579C85.0519 71.7393 85.0426 71.816 85.0009 71.8858C84.9592 71.9556 84.8943 72.0021 84.8039 72.023C82.4052 72.5951 79.9996 73.1137 77.5846 73.5788C77.3714 73.6184 77.2463 73.5416 77.2092 73.344C76.5626 69.9161 75.9136 66.4858 75.267 63.0579C75.23 62.8602 75.3111 62.744 75.5081 62.7068C76.2288 62.5672 76.9473 62.4254 77.6657 62.2765C77.8627 62.2347 77.9832 62.3137 78.0226 62.5091C78.5511 65.0533 79.0795 67.5974 79.6079 70.1416C79.6241 70.2253 79.6681 70.2858 79.74 70.323C79.8118 70.3626 79.8906 70.3719 79.9787 70.3533C81.3832 70.0579 82.783 69.7416 84.1828 69.4067H84.1805Z" fill="#1D539F"/>
<path d="M91.1749 48.6605L86.5606 46.3651L86.5096 0H4.23748L4.32555 46.7349L0.0913086 48.8419L4.32555 51.793V51.8581H4.42057L4.68014 52.0395L4.69868 51.8581H6.12632C6.12632 51.8581 45.6227 63.7581 85.9627 52.0395H86.5652V51.8674C86.5652 51.8674 86.5838 51.8628 86.5907 51.8605L91.1773 48.6628L91.1749 48.6605Z" fill="#1D539F"/>
<path d="M20.4975 130.565C20.7223 130.66 20.9146 130.79 21.0769 130.958C21.2391 131.125 21.3689 131.318 21.4685 131.539C21.5682 131.758 21.6169 131.995 21.6169 132.246V135.197C21.6169 135.449 21.5682 135.686 21.4685 135.911C21.3689 136.137 21.2391 136.332 21.0769 136.5C20.9146 136.667 20.7223 136.797 20.4975 136.893C20.2727 136.988 20.0363 137.035 19.786 137.035H13.5447C13.3454 137.035 13.248 136.935 13.248 136.737V134.837C13.248 134.753 13.2759 134.683 13.3338 134.625C13.3917 134.567 13.4613 134.539 13.5447 134.539H18.8636C18.947 134.539 19.0165 134.514 19.0745 134.46C19.1324 134.409 19.1602 134.339 19.1602 134.256V132.953C19.1602 132.87 19.1324 132.8 19.0745 132.742C19.0165 132.683 18.947 132.656 18.8636 132.656H15.0789C14.8286 132.656 14.5923 132.609 14.3674 132.514C14.1426 132.418 13.948 132.288 13.7811 132.121C13.6142 131.953 13.4844 131.76 13.3894 131.539C13.2944 131.318 13.248 131.083 13.248 130.832V127.881C13.248 127.63 13.2944 127.393 13.3894 127.167C13.4821 126.942 13.6142 126.749 13.7811 126.586C13.948 126.423 14.1426 126.293 14.3674 126.193C14.5923 126.093 14.8286 126.044 15.0789 126.044H20.9749C21.1719 126.044 21.2716 126.144 21.2716 126.342V128.272C21.2716 128.356 21.2437 128.423 21.1858 128.477C21.1279 128.53 21.0583 128.556 20.9749 128.556H15.9851C15.9017 128.556 15.8345 128.583 15.7812 128.642C15.7279 128.7 15.7024 128.77 15.7024 128.853V130.125C15.7024 130.209 15.7279 130.279 15.7812 130.337C15.8322 130.395 15.9017 130.423 15.9851 130.423H19.786C20.0363 130.423 20.2727 130.47 20.4975 130.565Z" fill="white"/>
<path d="M32.2759 126.133C32.3338 126.191 32.3616 126.26 32.3616 126.344V128.321C32.3616 128.405 32.3338 128.472 32.2759 128.526C32.2179 128.579 32.1484 128.605 32.065 128.605H26.8249C26.7716 128.605 26.7461 128.63 26.7461 128.684V130.395C26.7461 130.437 26.7716 130.458 26.8249 130.458H31.2979C31.3813 130.458 31.4485 130.486 31.5018 130.544C31.5528 130.602 31.5806 130.672 31.5806 130.756V132.326C31.5806 132.409 31.5551 132.481 31.5018 132.537C31.4485 132.595 31.3813 132.623 31.2979 132.623H26.8249C26.7716 132.623 26.7461 132.649 26.7461 132.702V134.398C26.7461 134.451 26.7716 134.477 26.8249 134.477H32.065C32.1484 134.477 32.2179 134.505 32.2759 134.563C32.3338 134.621 32.3616 134.691 32.3616 134.774V136.737C32.3616 136.821 32.3338 136.891 32.2759 136.949C32.2179 137.007 32.1484 137.035 32.065 137.035H24.2918C24.0925 137.035 23.9951 136.935 23.9951 136.737V126.346C23.9951 126.263 24.0229 126.193 24.0809 126.135C24.1388 126.077 24.2083 126.049 24.2918 126.049H32.065C32.1484 126.049 32.2179 126.077 32.2759 126.135V126.133Z" fill="white"/>
<path d="M42.1994 126.046C42.4497 126.046 42.6861 126.095 42.9109 126.195C43.1357 126.295 43.3281 126.425 43.4903 126.588C43.6525 126.751 43.7823 126.944 43.882 127.17C43.9816 127.395 44.0303 127.632 44.0303 127.884V136.735C44.0303 136.818 44.0025 136.888 43.9446 136.946C43.8866 137.005 43.8171 137.032 43.7337 137.032H41.5598C41.4763 137.032 41.4068 137.005 41.3489 136.946C41.2909 136.888 41.2631 136.818 41.2631 136.735V133.925C41.2631 133.842 41.2376 133.772 41.1843 133.714C41.131 133.656 41.0638 133.628 40.9804 133.628H37.8841C37.8006 133.628 37.7311 133.656 37.6732 133.714C37.6152 133.772 37.5874 133.842 37.5874 133.925V136.735C37.5874 136.935 37.4878 137.032 37.2908 137.032H35.1331C34.9361 137.032 34.8364 136.932 34.8364 136.735V127.884C34.8364 127.632 34.8828 127.395 34.9778 127.17C35.0728 126.944 35.2026 126.751 35.3695 126.588C35.5363 126.425 35.731 126.295 35.9558 126.195C36.1806 126.095 36.417 126.046 36.6673 126.046H42.2041H42.1994ZM41.2608 131.272V128.509H37.5851V131.272H41.2608Z" fill="white"/>
<path d="M53.704 130.565C53.9288 130.66 54.1212 130.79 54.2834 130.958C54.4456 131.125 54.5754 131.318 54.6751 131.539C54.7747 131.758 54.8234 131.995 54.8234 132.246V135.197C54.8234 135.449 54.7747 135.686 54.6751 135.911C54.5754 136.137 54.4456 136.332 54.2834 136.5C54.1212 136.667 53.9288 136.797 53.704 136.893C53.4792 136.988 53.2428 137.035 52.9925 137.035H46.7512C46.5519 137.035 46.4546 136.935 46.4546 136.737V134.837C46.4546 134.753 46.4824 134.683 46.5403 134.625C46.5983 134.567 46.6678 134.539 46.7512 134.539H52.0701C52.1535 134.539 52.2231 134.514 52.281 134.46C52.339 134.409 52.3668 134.339 52.3668 134.256V132.953C52.3668 132.87 52.339 132.8 52.281 132.742C52.2231 132.683 52.1535 132.656 52.0701 132.656H48.2855C48.0352 132.656 47.7988 132.609 47.574 132.514C47.3492 132.418 47.1545 132.288 46.9876 132.121C46.8208 131.953 46.691 131.76 46.596 131.539C46.5009 131.318 46.4546 131.083 46.4546 130.832V127.881C46.4546 127.63 46.5009 127.393 46.596 127.167C46.6887 126.942 46.8208 126.749 46.9876 126.586C47.1545 126.423 47.3492 126.293 47.574 126.193C47.7988 126.093 48.0352 126.044 48.2855 126.044H54.1814C54.3808 126.044 54.4781 126.144 54.4781 126.342V128.272C54.4781 128.356 54.4503 128.423 54.3923 128.477C54.3344 128.53 54.2649 128.556 54.1814 128.556H49.1917C49.1082 128.556 49.041 128.583 48.9877 128.642C48.9367 128.7 48.9089 128.77 48.9089 128.853V130.125C48.9089 130.209 48.9344 130.279 48.9877 130.337C49.0387 130.395 49.1082 130.423 49.1917 130.423H52.9925C53.2428 130.423 53.4792 130.47 53.704 130.565Z" fill="white"/>
<path d="M64.5341 126.046C64.7844 126.046 65.0208 126.095 65.2456 126.195C65.4704 126.295 65.6628 126.425 65.825 126.588C65.9873 126.751 66.117 126.944 66.2167 127.17C66.3164 127.395 66.365 127.632 66.365 127.884V135.198C66.365 135.449 66.3164 135.686 66.2167 135.911C66.117 136.137 65.9873 136.332 65.825 136.5C65.6628 136.667 65.4704 136.798 65.2456 136.893C65.0208 136.988 64.7844 137.035 64.5341 137.035H58.9974C58.7471 137.035 58.5107 136.988 58.2859 136.893C58.0611 136.798 57.8664 136.667 57.6996 136.5C57.5327 136.332 57.4029 136.137 57.3079 135.911C57.2152 135.686 57.1665 135.449 57.1665 135.198V127.884C57.1665 127.632 57.2129 127.395 57.3079 127.17C57.4029 126.944 57.5327 126.751 57.6996 126.588C57.8664 126.425 58.0611 126.295 58.2859 126.195C58.5107 126.095 58.7471 126.046 58.9974 126.046H64.5341ZM63.5955 128.714H59.9198V134.365H63.5955V128.714Z" fill="white"/>
<path d="M77.9322 126.132C77.9902 126.19 78.018 126.26 78.018 126.344V136.735C78.018 136.818 77.9902 136.888 77.9322 136.946C77.8743 137.004 77.8048 137.032 77.7213 137.032H75.4686C75.3852 137.032 75.3018 137.009 75.2183 136.963C75.1349 136.916 75.0723 136.856 75.0306 136.781L71.5728 130.377V136.732C71.5728 136.932 71.4731 137.03 71.2761 137.03H69.1184C68.9191 137.03 68.8218 136.93 68.8218 136.732V126.342C68.8218 126.144 68.9214 126.044 69.1184 126.044H71.3387C71.4221 126.044 71.5055 126.067 71.589 126.114C71.6724 126.16 71.735 126.221 71.7767 126.295L75.2485 132.714V126.342C75.2485 126.258 75.2763 126.188 75.3342 126.13C75.3921 126.072 75.4617 126.044 75.5451 126.044H77.719C77.8024 126.044 77.872 126.072 77.9299 126.13L77.9322 126.132Z" fill="white"/>
<path d="M18.8058 36.6277C18.8707 36.6556 18.9264 36.6951 18.9727 36.7416C19.0191 36.7881 19.0561 36.844 19.0863 36.9091C19.1164 36.9742 19.128 37.0416 19.128 37.1137V39.6602C19.128 39.6835 19.1187 39.7044 19.1025 39.7207C19.0863 39.737 19.0654 39.7463 19.0422 39.7463H18.4165C18.3933 39.7463 18.3725 39.737 18.3586 39.7207C18.3446 39.7044 18.3354 39.6835 18.3354 39.6602V37.3533H17.8325V39.6602C17.8325 39.6835 17.8255 39.7044 17.8093 39.7207C17.7931 39.737 17.7745 39.7463 17.7513 39.7463H17.1835C17.1604 39.7463 17.1395 39.737 17.1233 39.7207C17.107 39.7044 17.0978 39.6835 17.0978 39.6602V37.3533H16.5949V39.6602C16.5949 39.7184 16.5671 39.7463 16.5091 39.7463H15.888C15.8301 39.7463 15.8022 39.7184 15.8022 39.6602V36.6695C15.8022 36.6114 15.8301 36.5835 15.888 36.5835H18.6019C18.6737 36.5835 18.7433 36.5975 18.8058 36.6254V36.6277Z" fill="white"/>
<path d="M21.9556 36.5859C22.0274 36.5859 22.0969 36.5999 22.1618 36.6278C22.2267 36.6557 22.2823 36.6952 22.3287 36.7418C22.375 36.7883 22.4121 36.8441 22.4423 36.9092C22.4724 36.9743 22.484 37.0417 22.484 37.1138V39.6604C22.484 39.6836 22.4747 39.7045 22.4585 39.7208C22.4423 39.7371 22.4214 39.7464 22.3982 39.7464H21.7725C21.7493 39.7464 21.7284 39.7371 21.7122 39.7208C21.696 39.7045 21.6867 39.6836 21.6867 39.6604V38.8511C21.6867 38.8278 21.6797 38.8069 21.6635 38.7906C21.6473 38.7743 21.6288 38.765 21.6056 38.765H20.7133C20.6902 38.765 20.6693 38.7743 20.653 38.7906C20.6368 38.8069 20.6276 38.8278 20.6276 38.8511V39.6604C20.6276 39.7185 20.5997 39.7464 20.5418 39.7464H19.9207C19.8651 39.7464 19.835 39.7185 19.835 39.6604V37.1138C19.835 37.0417 19.8488 36.972 19.8743 36.9092C19.9021 36.8441 19.9392 36.7883 19.9879 36.7418C20.0366 36.6952 20.0922 36.658 20.1571 36.6278C20.222 36.5999 20.2892 36.5859 20.361 36.5859H21.9556ZM21.6867 38.0906V37.2952H20.6299V38.0906H21.6867Z" fill="white"/>
<path d="M25.3159 36.6114C25.3321 36.6277 25.3414 36.6486 25.3414 36.6719V39.2184C25.3414 39.2905 25.3275 39.3602 25.2997 39.423C25.2719 39.4881 25.2325 39.544 25.1861 39.5928C25.1397 39.6416 25.0841 39.6788 25.0192 39.7068C24.9543 39.7347 24.8871 39.7463 24.8153 39.7463H23.4595C23.3876 39.7463 23.3181 39.7323 23.2555 39.7068C23.1907 39.6788 23.1351 39.6416 23.0864 39.5928C23.0378 39.544 23.0007 39.4881 22.9729 39.423C22.9451 39.3579 22.9312 39.2905 22.9312 39.2184V38.2509C22.9312 38.1928 22.959 38.1649 23.0169 38.1649H23.6379C23.6936 38.1649 23.7237 38.1928 23.7237 38.2509V38.8974C23.7237 38.9207 23.7307 38.9416 23.7492 38.9556C23.7654 38.9695 23.7863 38.9788 23.8095 38.9788H24.463C24.4862 38.9788 24.507 38.9719 24.5233 38.9556C24.5395 38.9393 24.5488 38.9207 24.5488 38.8974V36.6695C24.5488 36.6463 24.5557 36.6254 24.5719 36.6091C24.5882 36.5928 24.6067 36.5835 24.6299 36.5835H25.2556C25.2788 36.5835 25.2997 36.5928 25.3159 36.6091V36.6114Z" fill="white"/>
<path d="M28.162 36.5859C28.2338 36.5859 28.3034 36.5999 28.3659 36.6278C28.4308 36.6557 28.4864 36.6952 28.5328 36.7418C28.5791 36.7883 28.6162 36.8441 28.6464 36.9092C28.6765 36.9743 28.6881 37.0417 28.6881 37.1138V39.2185C28.6881 39.2906 28.6742 39.3604 28.6464 39.4231C28.6185 39.4859 28.5815 39.5441 28.5328 39.5929C28.4864 39.6417 28.4308 39.679 28.3659 39.7069C28.301 39.7348 28.2338 39.7464 28.162 39.7464H26.5675C26.4956 39.7464 26.4261 39.7324 26.3635 39.7069C26.2986 39.679 26.243 39.6417 26.1943 39.5929C26.1457 39.5441 26.1086 39.4883 26.0808 39.4231C26.053 39.358 26.0391 39.2906 26.0391 39.2185V37.1138C26.0391 37.0417 26.053 36.972 26.0808 36.9092C26.1086 36.8464 26.1457 36.7883 26.1943 36.7418C26.243 36.6952 26.2986 36.658 26.3635 36.6278C26.4284 36.5999 26.4956 36.5859 26.5675 36.5859H28.162ZM27.8931 37.3534H26.8363V38.979H27.8931V37.3534Z" fill="white"/>
<path d="M32.1414 39.6742C32.153 39.6951 32.1553 39.7137 32.146 39.7254C32.1367 39.7393 32.1205 39.7463 32.0973 39.7463H31.3812C31.358 39.7463 31.3325 39.7393 31.3093 39.7254C31.2862 39.7114 31.2676 39.6951 31.256 39.6742L30.7786 38.8161C30.7717 38.8044 30.7624 38.7975 30.7462 38.7975H30.2108C30.1969 38.7975 30.1876 38.8044 30.1876 38.8207V39.6602C30.1876 39.7184 30.1598 39.7463 30.1019 39.7463H29.4808C29.4228 39.7463 29.395 39.7184 29.395 39.6602V36.6695C29.395 36.6114 29.4228 36.5835 29.4808 36.5835H31.5156C31.5875 36.5835 31.657 36.5975 31.7196 36.6254C31.7845 36.6533 31.8401 36.6928 31.8864 36.7393C31.9328 36.7858 31.9699 36.8416 32 36.9068C32.0278 36.9719 32.0417 37.0393 32.0417 37.1114V38.2998C32.0417 38.4137 32.0069 38.5184 31.9397 38.6091C31.8725 38.7021 31.7868 38.7626 31.6802 38.7975L31.6663 38.8021C31.6454 38.8091 31.6408 38.8161 31.6524 38.83L31.657 38.8393L32.139 39.6742H32.1414ZM31.2445 37.3207H30.1598V38.0881H31.2445V37.3207Z" fill="white"/>
<path d="M36.3871 38.9788C36.4103 38.9788 36.4312 38.9881 36.4451 39.0044C36.459 39.0207 36.4683 39.0416 36.4683 39.0649V39.6602C36.4683 39.6835 36.4613 39.7044 36.4451 39.7207C36.4289 39.737 36.4103 39.7463 36.3871 39.7463H34.4427C34.3847 39.7463 34.3569 39.7184 34.3569 39.6602V36.6695C34.3569 36.6114 34.3847 36.5835 34.4427 36.5835H35.0638C35.1217 36.5835 35.1495 36.6114 35.1495 36.6695V38.8974C35.1495 38.9207 35.1565 38.9416 35.175 38.9556C35.1936 38.9695 35.2121 38.9788 35.2353 38.9788H36.3871Z" fill="white"/>
<path d="M39.2931 36.6117C39.3094 36.628 39.3186 36.649 39.3186 36.6722V37.242C39.3186 37.2652 39.3094 37.2862 39.2931 37.3001C39.2769 37.3141 39.256 37.3234 39.2329 37.3234H37.7241C37.7102 37.3234 37.7009 37.3304 37.7009 37.3466V37.8397C37.7009 37.8513 37.7079 37.8583 37.7241 37.8583H39.0127C39.0359 37.8583 39.0567 37.8676 39.0706 37.8838C39.0845 37.9001 39.0938 37.9211 39.0938 37.9443V38.3955C39.0938 38.4187 39.0869 38.4397 39.0706 38.4559C39.0544 38.4722 39.0359 38.4815 39.0127 38.4815H37.7241C37.7102 38.4815 37.7009 38.4885 37.7009 38.5048V38.9931C37.7009 39.0071 37.7079 39.0164 37.7241 39.0164H39.2329C39.256 39.0164 39.2769 39.0257 39.2931 39.042C39.3094 39.0583 39.3186 39.0792 39.3186 39.1024V39.6676C39.3186 39.6908 39.3094 39.7118 39.2931 39.728C39.2769 39.7443 39.256 39.7536 39.2329 39.7536H36.9964C36.9385 39.7536 36.9106 39.7257 36.9106 39.6676V36.6769C36.9106 36.6536 36.9199 36.6327 36.9361 36.6164C36.9524 36.6001 36.9732 36.5908 36.9964 36.5908H39.2329C39.256 36.5908 39.2769 36.6001 39.2931 36.6164V36.6117Z" fill="white"/>
<path d="M42.1484 36.5859C42.2203 36.5859 42.2898 36.5999 42.3547 36.6278C42.4196 36.6557 42.4752 36.6952 42.5216 36.7418C42.5679 36.7883 42.605 36.8441 42.6351 36.9092C42.6653 36.9743 42.6768 37.0417 42.6768 37.1138V39.6604C42.6768 39.6836 42.6676 39.7045 42.6513 39.7208C42.6351 39.7371 42.6143 39.7464 42.5911 39.7464H41.9653C41.9422 39.7464 41.9213 39.7371 41.9051 39.7208C41.8889 39.7045 41.8796 39.6836 41.8796 39.6604V38.8511C41.8796 38.8278 41.8726 38.8069 41.8564 38.7906C41.8402 38.7743 41.8216 38.765 41.7985 38.765H40.9062C40.883 38.765 40.8622 38.7743 40.8459 38.7906C40.8297 38.8069 40.8204 38.8278 40.8204 38.8511V39.6604C40.8204 39.7185 40.7926 39.7464 40.7347 39.7464H40.1136C40.058 39.7464 40.0278 39.7185 40.0278 39.6604V37.1138C40.0278 37.0417 40.0417 36.972 40.0672 36.9092C40.095 36.8441 40.1321 36.7883 40.1808 36.7418C40.2295 36.6952 40.2851 36.658 40.35 36.6278C40.4149 36.5999 40.4821 36.5859 40.5539 36.5859H42.1484ZM41.8796 38.0906V37.2952H40.8228V38.0906H41.8796Z" fill="white"/>
<path d="M46.0005 38.0464C46.0167 38.0627 46.026 38.0836 46.026 38.1069V39.2185C46.026 39.2906 46.0121 39.3604 45.9842 39.4231C45.9564 39.4859 45.9194 39.5441 45.8707 39.5929C45.8243 39.6417 45.7687 39.679 45.7038 39.7069C45.6389 39.7348 45.5717 39.7464 45.4999 39.7464H43.9054C43.8335 39.7464 43.764 39.7324 43.7014 39.7069C43.6365 39.679 43.5809 39.6417 43.5322 39.5929C43.4836 39.5441 43.4465 39.4883 43.4187 39.4231C43.3909 39.358 43.377 39.2906 43.377 39.2185V37.1138C43.377 37.0417 43.3909 36.972 43.4187 36.9092C43.4465 36.8464 43.4836 36.7883 43.5322 36.7418C43.5809 36.6952 43.6365 36.658 43.7014 36.6278C43.7663 36.5999 43.8335 36.5859 43.9054 36.5859H45.7641C45.7872 36.5859 45.8081 36.5952 45.8243 36.6115C45.8406 36.6278 45.8498 36.6487 45.8498 36.672V37.2673C45.8498 37.2906 45.8406 37.3115 45.8243 37.3278C45.8081 37.3441 45.7872 37.3534 45.7641 37.3534H44.2553C44.2321 37.3534 44.2113 37.3604 44.1951 37.3766C44.1788 37.3929 44.1696 37.4115 44.1696 37.4348V38.8976C44.1696 38.9208 44.1788 38.9417 44.1951 38.9557C44.2113 38.9697 44.2321 38.979 44.2553 38.979H45.1476C45.1708 38.979 45.1916 38.972 45.2055 38.9557C45.2194 38.9394 45.2287 38.9208 45.2287 38.8976V38.1069C45.2287 38.0836 45.2357 38.0627 45.2542 38.0464C45.2727 38.0301 45.2913 38.0208 45.3145 38.0208H45.9402C45.9634 38.0208 45.9842 38.0301 46.0005 38.0464Z" fill="white"/>
<path d="M49.3218 36.6115C49.338 36.6278 49.3472 36.6487 49.3472 36.672V39.2185C49.3472 39.2906 49.3333 39.3604 49.3055 39.4231C49.2777 39.4859 49.2406 39.5441 49.192 39.5929C49.1456 39.6417 49.09 39.679 49.0251 39.7069C48.9602 39.7348 48.893 39.7464 48.8188 39.7464H47.2243C47.1525 39.7464 47.083 39.7324 47.0204 39.7069C46.9555 39.679 46.8999 39.6417 46.8512 39.5929C46.8025 39.5441 46.7655 39.4883 46.7376 39.4231C46.7098 39.358 46.6982 39.2906 46.6982 39.2185V36.672C46.6982 36.6138 46.7261 36.5859 46.784 36.5859H47.4051C47.4607 36.5859 47.4909 36.6138 47.4909 36.672V38.8999C47.4909 38.9231 47.5001 38.9441 47.5164 38.958C47.5326 38.972 47.5534 38.9813 47.5766 38.9813H48.4689C48.4921 38.9813 48.5129 38.9743 48.5268 38.958C48.5407 38.9418 48.55 38.9231 48.55 38.8999V36.672C48.55 36.6487 48.5593 36.6278 48.5755 36.6115C48.5917 36.5952 48.6126 36.5859 48.6357 36.5859H49.2615C49.2847 36.5859 49.3055 36.5952 49.3218 36.6115Z" fill="white"/>
<path d="M52.4411 36.6117C52.4573 36.628 52.4666 36.649 52.4666 36.6722V37.242C52.4666 37.2652 52.4573 37.2862 52.4411 37.3001C52.4249 37.3141 52.404 37.3234 52.3808 37.3234H50.8721C50.8582 37.3234 50.8489 37.3304 50.8489 37.3466V37.8397C50.8489 37.8513 50.8558 37.8583 50.8721 37.8583H52.1606C52.1838 37.8583 52.2047 37.8676 52.2186 37.8838C52.2325 37.9001 52.2418 37.9211 52.2418 37.9443V38.3955C52.2418 38.4187 52.2348 38.4397 52.2186 38.4559C52.2024 38.4722 52.1838 38.4815 52.1606 38.4815H50.8721C50.8582 38.4815 50.8489 38.4885 50.8489 38.5048V38.9931C50.8489 39.0071 50.8558 39.0164 50.8721 39.0164H52.3808C52.404 39.0164 52.4249 39.0257 52.4411 39.042C52.4573 39.0583 52.4666 39.0792 52.4666 39.1024V39.6676C52.4666 39.6908 52.4573 39.7118 52.4411 39.728C52.4249 39.7443 52.404 39.7536 52.3808 39.7536H50.1443C50.0864 39.7536 50.0586 39.7257 50.0586 39.6676V36.6769C50.0586 36.6536 50.0679 36.6327 50.0841 36.6164C50.1003 36.6001 50.1212 36.5908 50.1443 36.5908H52.3808C52.404 36.5908 52.4249 36.6001 52.4411 36.6164V36.6117Z" fill="white"/>
<path d="M57.2732 36.5859C57.2964 36.5859 57.3173 36.5952 57.3335 36.6115C57.3497 36.6278 57.359 36.6487 57.359 36.672V39.6627C57.359 39.6859 57.352 39.7069 57.3335 39.7231C57.3149 39.7394 57.2964 39.7487 57.2732 39.7487H56.6475C56.6243 39.7487 56.6034 39.7394 56.5872 39.7231C56.571 39.7069 56.5617 39.6859 56.5617 39.6627V38.6185C56.5617 38.5952 56.5548 38.5743 56.5385 38.5604C56.5223 38.5464 56.5038 38.5371 56.4806 38.5371H55.5883C55.5652 38.5371 55.5443 38.5441 55.5281 38.5604C55.5118 38.5766 55.5026 38.5952 55.5026 38.6185V39.6627C55.5026 39.7208 55.4748 39.7487 55.4168 39.7487H54.7957C54.7378 39.7487 54.71 39.7208 54.71 39.6627V36.672C54.71 36.6138 54.7378 36.5859 54.7957 36.5859H55.4168C55.4748 36.5859 55.5026 36.6138 55.5026 36.672V37.6836C55.5026 37.7417 55.5304 37.7697 55.5883 37.7697H56.4806C56.5038 37.7697 56.5246 37.7604 56.5385 37.7441C56.5524 37.7278 56.5617 37.7069 56.5617 37.6836V36.672C56.5617 36.6487 56.571 36.6278 56.5872 36.6115C56.6034 36.5952 56.6243 36.5859 56.6475 36.5859H57.2732Z" fill="white"/>
<path d="M60.189 36.5859C60.2608 36.5859 60.3303 36.5999 60.3952 36.6278C60.4601 36.6557 60.5157 36.6952 60.5621 36.7418C60.6084 36.7883 60.6455 36.8441 60.6756 36.9092C60.7058 36.9743 60.7174 37.0417 60.7174 37.1138V39.6604C60.7174 39.6836 60.7081 39.7045 60.6919 39.7208C60.6756 39.7371 60.6548 39.7464 60.6316 39.7464H60.0059C59.9827 39.7464 59.9618 39.7371 59.9456 39.7208C59.9294 39.7045 59.9201 39.6836 59.9201 39.6604V38.8511C59.9201 38.8278 59.9132 38.8069 59.8969 38.7906C59.8807 38.7743 59.8622 38.765 59.839 38.765H58.9467C58.9235 38.765 58.9027 38.7743 58.8865 38.7906C58.8702 38.8069 58.861 38.8278 58.861 38.8511V39.6604C58.861 39.7185 58.8332 39.7464 58.7752 39.7464H58.1541C58.0985 39.7464 58.0684 39.7185 58.0684 39.6604V37.1138C58.0684 37.0417 58.0823 36.972 58.1078 36.9092C58.1356 36.8441 58.1727 36.7883 58.2213 36.7418C58.27 36.6952 58.3256 36.658 58.3905 36.6278C58.4554 36.5999 58.5226 36.5859 58.5945 36.5859H60.189ZM59.9201 38.0906V37.2952H58.8633V38.0906H59.9201Z" fill="white"/>
<path d="M62.2307 37.3766C62.2145 37.3906 62.2052 37.4115 62.2052 37.4348V38.8976C62.2052 38.9208 62.2122 38.9417 62.2307 38.9557C62.2492 38.9697 62.2678 38.979 62.291 38.979H63.7371C63.7603 38.979 63.7812 38.9883 63.7974 39.0045C63.8136 39.0208 63.8229 39.0417 63.8229 39.065V39.6604C63.8229 39.6836 63.8159 39.7045 63.7974 39.7208C63.7789 39.7371 63.7603 39.7464 63.7371 39.7464H61.941C61.8692 39.7464 61.7996 39.7324 61.7371 39.7069C61.6722 39.679 61.6165 39.6417 61.5679 39.5929C61.5192 39.5441 61.4821 39.4883 61.4543 39.4231C61.4265 39.358 61.4126 39.2906 61.4126 39.2185V37.1138C61.4126 37.0417 61.4265 36.972 61.4543 36.9092C61.4821 36.8441 61.5192 36.7883 61.5679 36.7418C61.6165 36.6952 61.6722 36.658 61.7371 36.6278C61.802 36.5999 61.8692 36.5859 61.941 36.5859H63.7371C63.7603 36.5859 63.7812 36.5952 63.7974 36.6115C63.8136 36.6278 63.8229 36.6487 63.8229 36.672V37.2673C63.8229 37.2906 63.8159 37.3115 63.7974 37.3278C63.7789 37.3441 63.7603 37.3534 63.7371 37.3534H62.291C62.2678 37.3534 62.2469 37.3604 62.2307 37.3766Z" fill="white"/>
<path d="M66.3303 37.9185C66.3303 37.9185 66.3187 37.9371 66.3257 37.9511L67.3802 39.6766C67.3918 39.6976 67.3941 39.7162 67.3848 39.7278C67.3756 39.7418 67.3593 39.7487 67.3362 39.7487H66.5899C66.5667 39.7487 66.5412 39.7418 66.5181 39.7278C66.4949 39.7138 66.4763 39.6976 66.4647 39.6766L65.7857 38.4441C65.7764 38.4301 65.7695 38.4278 65.7625 38.4394L65.3894 38.8511C65.3755 38.8673 65.3616 38.8883 65.3523 38.9162C65.3407 38.9441 65.3361 38.972 65.3361 38.9952V39.6627C65.3361 39.7208 65.3083 39.7487 65.2503 39.7487H64.6292C64.5713 39.7487 64.5435 39.7208 64.5435 39.6627V36.672C64.5435 36.6138 64.5713 36.5859 64.6292 36.5859H65.2503C65.3083 36.5859 65.3361 36.6138 65.3361 36.672V38.0138L66.4972 36.6487C66.5111 36.6301 66.532 36.6162 66.5598 36.6045C66.5876 36.5929 66.6131 36.5859 66.6362 36.5859H67.3825C67.4057 36.5859 67.4196 36.5929 67.4242 36.6045C67.4289 36.6162 67.4242 36.6324 67.408 36.6487L66.3326 37.9185H66.3303Z" fill="white"/>
<path d="M68.757 39.6627C68.757 39.7208 68.7292 39.7487 68.6712 39.7487H68.0501C67.9922 39.7487 67.9644 39.7208 67.9644 39.6627V36.672C67.9644 36.6138 67.9922 36.5859 68.0501 36.5859H68.6712C68.7292 36.5859 68.757 36.6138 68.757 36.672V39.6627Z" fill="white"/>
<path d="M71.7883 36.6277C71.8532 36.6556 71.9088 36.6951 71.9552 36.7416C72.0015 36.7881 72.0386 36.844 72.0687 36.9091C72.0965 36.9742 72.1104 37.0416 72.1104 37.1137V39.6602C72.1104 39.6835 72.1035 39.7044 72.0849 39.7207C72.0664 39.737 72.0479 39.7463 72.0247 39.7463H71.3989C71.3758 39.7463 71.3549 39.737 71.341 39.7207C71.3271 39.7044 71.3178 39.6835 71.3178 39.6602V37.4323C71.3178 37.4091 71.3086 37.3881 71.2923 37.3742C71.2761 37.3602 71.2552 37.3509 71.2321 37.3509H70.3398C70.3166 37.3509 70.2958 37.3579 70.2795 37.3742C70.2633 37.3905 70.254 37.4091 70.254 37.4323V39.6602C70.254 39.7184 70.2262 39.7463 70.1683 39.7463H69.5472C69.4892 39.7463 69.4614 39.7184 69.4614 39.6602V36.6695C69.4614 36.6114 69.4892 36.5835 69.5472 36.5835H71.582C71.6539 36.5835 71.7234 36.5975 71.786 36.6254L71.7883 36.6277Z" fill="white"/>
<path d="M75.4341 38.0464C75.4503 38.0627 75.4596 38.0836 75.4596 38.1069V39.2185C75.4596 39.2906 75.4456 39.3604 75.4178 39.4231C75.39 39.4859 75.3529 39.5441 75.3043 39.5929C75.2579 39.6417 75.2023 39.679 75.1374 39.7069C75.0725 39.7348 75.0053 39.7464 74.9335 39.7464H73.339C73.2671 39.7464 73.1976 39.7324 73.135 39.7069C73.0701 39.679 73.0145 39.6417 72.9658 39.5929C72.9172 39.5441 72.8801 39.4883 72.8523 39.4231C72.8245 39.358 72.8105 39.2906 72.8105 39.2185V37.1138C72.8105 37.0417 72.8245 36.972 72.8523 36.9092C72.8801 36.8464 72.9172 36.7883 72.9658 36.7418C73.0145 36.6952 73.0701 36.658 73.135 36.6278C73.1999 36.5999 73.2671 36.5859 73.339 36.5859H75.1977C75.2208 36.5859 75.2417 36.5952 75.2579 36.6115C75.2741 36.6278 75.2834 36.6487 75.2834 36.672V37.2673C75.2834 37.2906 75.2741 37.3115 75.2579 37.3278C75.2417 37.3441 75.2208 37.3534 75.1977 37.3534H73.6889C73.6657 37.3534 73.6449 37.3604 73.6287 37.3766C73.6124 37.3929 73.6032 37.4115 73.6032 37.4348V38.8976C73.6032 38.9208 73.6124 38.9417 73.6287 38.9557C73.6449 38.9697 73.6657 38.979 73.6889 38.979H74.5812C74.6044 38.979 74.6252 38.972 74.6391 38.9557C74.653 38.9394 74.6623 38.9208 74.6623 38.8976V38.1069C74.6623 38.0836 74.6693 38.0627 74.6878 38.0464C74.7063 38.0301 74.7249 38.0208 74.7481 38.0208H75.3738C75.397 38.0208 75.4178 38.0301 75.4341 38.0464Z" fill="white"/>
<path d="M34.7905 14.8186C35.1983 15 35.5483 15.2372 35.8426 15.5302C36.137 15.8256 36.3734 16.1767 36.5541 16.5837C36.7349 16.993 36.8253 17.4232 36.8253 17.8791V34.4674C36.8253 34.6186 36.772 34.7488 36.6677 34.8512C36.5634 34.9535 36.4359 35.007 36.283 35.007H32.3292C32.1762 35.007 32.0534 34.9558 31.9584 34.8512C31.8633 34.7465 31.817 34.6186 31.817 34.4674V19.3907H28.6303V34.4698C28.6303 34.6209 28.5816 34.7512 28.4889 34.8535C28.3939 34.9581 28.2711 35.0093 28.1181 35.0093H24.5328C24.3798 35.0093 24.2524 34.9581 24.1481 34.8535C24.0438 34.7488 23.9905 34.6209 23.9905 34.4698V19.3907H20.8039V34.4698C20.8039 34.8302 20.6231 35.0116 20.2639 35.0116H16.3379C15.9763 35.0116 15.7979 34.8302 15.7979 34.4698V15.0907C15.7979 14.7302 15.9786 14.5488 16.3379 14.5488H33.4926C33.9468 14.5488 34.3779 14.6395 34.7858 14.8186H34.7905Z" fill="white"/>
<path d="M34.7903 14.8185C35.1982 14.9999 35.5482 15.2371 35.8425 15.5301C36.1369 15.8255 36.3732 16.1766 36.554 16.5836C36.7348 16.9929 36.8252 17.4231 36.8252 17.8789V19.358L31.8192 19.3882H20.8107L15.8047 19.358V15.0882C15.8047 14.7278 15.9855 14.5464 16.3447 14.5464H33.4994C33.9537 14.5464 34.3848 14.6371 34.7926 14.8162L34.7903 14.8185Z" fill="white"/>
<path d="M54.0657 30.0442C54.2256 30.0442 54.3577 30.0977 54.4573 30.2046C54.557 30.3116 54.608 30.4442 54.608 30.6V34.4581C54.608 34.6139 54.557 34.7465 54.4573 34.8535C54.3577 34.9605 54.2256 35.0139 54.0657 35.0139H40.5217C40.1393 35.0139 39.9492 34.8279 39.9492 34.4581V15.1046C39.9492 14.7349 40.1393 14.5488 40.5217 14.5488H44.6794C45.0618 14.5488 45.2519 14.7349 45.2519 15.1046V29.5186C45.2519 29.6744 45.3075 29.8023 45.4187 29.8977C45.53 29.9953 45.6644 30.0442 45.8266 30.0442H54.0657Z" fill="white"/>
<path d="M45.2103 35.0139H40.5218C40.1417 35.0139 39.9517 34.8279 39.9517 34.4581V15.1046C39.9517 14.7349 40.1417 14.5488 40.5218 14.5488H44.6703C45.0504 14.5488 45.2404 14.7349 45.2404 15.1046V29.5186C45.2404 29.6744 45.2103 35.0139 45.2103 35.0139Z" fill="white"/>
<path d="M74.8824 14.5488C75.0446 14.5488 75.1813 14.6023 75.2926 14.7093C75.4038 14.8163 75.4594 14.9488 75.4594 15.1046V34.5139C75.4594 34.6698 75.4038 34.8023 75.2926 34.9093C75.1813 35.0163 75.0446 35.0698 74.8824 35.0698H70.669C70.5067 35.0698 70.37 35.0163 70.2588 34.9093C70.1475 34.8023 70.0919 34.6698 70.0919 34.5139V27.7418C70.0919 27.586 70.0409 27.4581 69.9412 27.3605C69.8393 27.2628 69.7095 27.2139 69.5473 27.2139H63.6374C63.4752 27.2139 63.3384 27.2628 63.2272 27.3605C63.1159 27.4581 63.0603 27.586 63.0603 27.7418V34.5139C63.0603 34.886 62.868 35.0721 62.4856 35.0721H58.3023C57.9176 35.0721 57.7275 34.886 57.7275 34.5139V15.107C57.7275 14.7349 57.9199 14.5488 58.3023 14.5488H62.4856C62.868 14.5488 63.0603 14.7349 63.0603 15.107V21.6744C63.0603 22.0465 63.2527 22.2325 63.6351 22.2325H69.5449C69.7072 22.2325 69.837 22.1791 69.9389 22.0721C70.0409 21.9651 70.0896 21.8325 70.0896 21.6767V15.1093C70.0896 14.9535 70.1452 14.8209 70.2564 14.7139C70.3677 14.607 70.5044 14.5535 70.6667 14.5535H74.88L74.8824 14.5488Z" fill="white"/>
<path d="M63.0647 27.7418V34.5139C63.0647 34.886 62.8724 35.0721 62.49 35.0721H58.3067C57.922 35.0721 57.7319 34.886 57.7319 34.5139V15.107C57.7319 14.7349 57.9243 14.5488 58.3067 14.5488H62.49C62.8724 14.5488 63.0647 14.7349 63.0647 15.107V27.7442V27.7418Z" fill="white"/>
<path d="M74.8823 14.5488C75.0445 14.5488 75.1812 14.6023 75.2925 14.7093C75.4037 14.8163 75.4593 14.9488 75.4593 15.1046V34.5139C75.4593 34.6698 75.4037 34.8023 75.2925 34.9093C75.1812 35.0163 75.0445 35.0698 74.8823 35.0698H70.6689C70.5067 35.0698 70.3699 35.0163 70.2587 34.9093C70.1474 34.8023 70.0918 34.6698 70.0918 34.5139V15.107C70.0918 14.9512 70.1474 14.8186 70.2587 14.7116C70.3699 14.6046 70.5067 14.5512 70.6689 14.5512H74.8823V14.5488Z" fill="white"/>
<path d="M18.3892 113.562C18.1377 113.562 17.976 113.707 17.9042 113.998V116.422C17.9581 116.695 18.1198 116.831 18.3892 116.831H18.9281H27.4426C27.5863 116.831 27.7031 116.886 27.7931 116.994C27.8828 117.085 27.9277 117.203 27.9277 117.349V120.645C27.9277 120.79 27.8828 120.917 27.7931 121.026C27.7031 121.117 27.5863 121.163 27.4426 121.163H18.982H17.8234H16.8264H16.7994H14.1858C13.8445 121.163 13.6738 120.99 13.6738 120.645V118.002V117.975V117.676V113.044V112.853C13.6738 112.418 13.7547 112.009 13.9163 111.628C14.078 111.246 14.3025 110.91 14.5899 110.62C14.8774 110.329 15.2097 110.102 15.5869 109.939C15.9821 109.775 16.3953 109.693 16.8264 109.693H17.9042H18.982H21.8921H23.2123C23.356 109.693 23.4728 109.648 23.5625 109.557C23.6705 109.448 23.7243 109.321 23.7243 109.176V106.969C23.7243 106.824 23.6705 106.706 23.5625 106.615C23.4728 106.506 23.356 106.452 23.2123 106.452H21.7843H14.7516C14.6079 106.452 14.4911 106.406 14.4013 106.315C14.3115 106.225 14.2666 106.106 14.2666 105.961V102.61C14.2666 102.465 14.3115 102.347 14.4013 102.256C14.4911 102.147 14.6079 102.093 14.7516 102.093H22.6465H23.6705H24.8022C25.2333 102.093 25.6375 102.183 26.0145 102.365C26.3918 102.529 26.7242 102.756 27.0116 103.046C27.299 103.319 27.5235 103.655 27.6853 104.054C27.8468 104.436 27.9277 104.844 27.9277 105.28V105.416V106.043C27.9458 106.061 27.9546 106.088 27.9546 106.125V113.072C27.9546 113.217 27.9008 113.335 27.7931 113.426C27.7031 113.516 27.5863 113.562 27.4426 113.562H24.8022H24.2363H23.7243H22.6465H18.7126H18.3892Z" fill="white"/>
<path d="M42.0101 102.093C42.4412 102.093 42.8454 102.183 43.2227 102.365C43.6178 102.529 43.9502 102.756 44.2195 103.046C44.5068 103.319 44.7314 103.655 44.8932 104.054C45.0728 104.436 45.1627 104.844 45.1627 105.28V117.975C45.1627 118.411 45.0728 118.829 44.8932 119.228C44.7314 119.61 44.5068 119.946 44.2195 120.236C43.9502 120.527 43.6178 120.754 43.2227 120.917C42.8454 121.081 42.4412 121.163 42.0101 121.163H39.3154H38.4802H37.5912H36.3246H33.8997C33.4684 121.163 33.0554 121.081 32.6602 120.917C32.2829 120.754 31.9506 120.527 31.6632 120.236C31.3758 119.946 31.1513 119.61 30.9895 119.228C30.828 118.829 30.7471 118.411 30.7471 117.975V105.28C30.7471 104.844 30.828 104.436 30.9895 104.054C31.1513 103.655 31.3758 103.319 31.6632 103.046C31.9506 102.756 32.2829 102.529 32.6602 102.365C33.0554 102.183 33.4684 102.093 33.8997 102.093H36.3246H37.5912H38.4802H39.3154H42.0101ZM40.582 106.724H35.3278V116.531H40.582V106.724Z" fill="white"/>
<path d="M52.6387 113.562C52.3873 113.562 52.2255 113.707 52.1536 113.998V116.422C52.2076 116.695 52.3692 116.831 52.6387 116.831H53.1776H61.6922C61.8358 116.831 61.9527 116.886 62.0426 116.994C62.1323 117.085 62.1772 117.203 62.1772 117.349V120.645C62.1772 120.79 62.1323 120.917 62.0426 121.026C61.9527 121.117 61.8358 121.163 61.6922 121.163H53.2316H52.0728H51.076H51.0488H48.4353C48.0939 121.163 47.9233 120.99 47.9233 120.645V118.002V117.975V117.676V113.044V112.853C47.9233 112.418 48.0042 112.009 48.1658 111.628C48.3275 111.246 48.5521 110.91 48.8395 110.62C49.1269 110.329 49.4592 110.102 49.8365 109.939C50.2317 109.775 50.6449 109.693 51.076 109.693H52.1536H53.2316H56.1415H57.4619C57.6055 109.693 57.7224 109.648 57.812 109.557C57.92 109.448 57.9738 109.321 57.9738 109.176V106.969C57.9738 106.824 57.92 106.706 57.812 106.615C57.7224 106.506 57.6055 106.452 57.4619 106.452H56.0338H49.0013C48.8573 106.452 48.7408 106.406 48.6508 106.315C48.5611 106.225 48.5162 106.106 48.5162 105.961V102.61C48.5162 102.465 48.5611 102.347 48.6508 102.256C48.7408 102.147 48.8573 102.093 49.0013 102.093H56.8961H57.92H59.0517C59.4828 102.093 59.887 102.183 60.2641 102.365C60.6414 102.529 60.9737 102.756 61.2611 103.046C61.5485 103.319 61.773 103.655 61.9348 104.054C62.0963 104.436 62.1772 104.844 62.1772 105.28V105.416V106.043C62.1953 106.061 62.2041 106.088 62.2041 106.125V113.072C62.2041 113.217 62.1503 113.335 62.0426 113.426C61.9527 113.516 61.8358 113.562 61.6922 113.562H59.0517H58.4858H57.9738H56.8961H52.962H52.6387Z" fill="white"/>
<path d="M77.8226 102.093C77.9663 102.093 78.0831 102.147 78.1728 102.256C78.2806 102.347 78.3346 102.465 78.3346 102.61V107.46V109.067V120.645C78.3346 120.79 78.2806 120.917 78.1728 121.026C78.0831 121.117 77.9663 121.163 77.8226 121.163H74.0772C73.9335 121.163 73.8169 121.117 73.727 121.026C73.6371 120.917 73.5923 120.79 73.5923 120.645V116.177C73.5923 116.032 73.5383 115.914 73.4306 115.823C73.3409 115.732 73.2241 115.687 73.0804 115.687H67.0716C66.6405 115.687 66.2273 115.605 65.8321 115.442C65.4548 115.26 65.1225 115.033 64.8351 114.76C64.5477 114.47 64.3231 114.134 64.1616 113.753C63.9998 113.353 63.9189 112.935 63.9189 112.5V109.476V109.067V106.016V105.28V102.61C63.9189 102.265 64.0897 102.093 64.4309 102.093H68.1495C68.4906 102.093 68.6614 102.265 68.6614 102.61V105.58V106.533V109.067V110.374C68.6614 110.52 68.7062 110.647 68.7961 110.756C68.9038 110.847 69.0297 110.892 69.1734 110.892H73.0804C73.2241 110.892 73.3409 110.847 73.4306 110.756C73.5383 110.647 73.5923 110.52 73.5923 110.374V109.067V108.467V105.798V102.61C73.5923 102.465 73.6371 102.347 73.727 102.256C73.8169 102.147 73.9335 102.093 74.0772 102.093H77.8226Z" fill="white"/>
</g>
</g>
<defs>
<clipPath id="clip0_212_123">
<rect width="91.3131" height="160" fill="white"/>
</clipPath>
</defs>
</svg>
