<svg width="1885" height="915" viewBox="0 0 1885 915" fill="none" xmlns="http://www.w3.org/2000/svg">
<g filter="url(#filter0_f_10_9)">
<path opacity="0.6" d="M554.015 264.531V355.109H654.953V264.531H708.234V504H654.953V403.062H554.015V504H501.029V264.531H554.015ZM886.125 504L867.476 454.567H779.266L760.618 504H710.297L798.211 264.531H853.86L936.742 504H886.125ZM795.843 410.462H850.9L823.371 337.645L795.843 410.462ZM1092.27 407.502H1146.44C1137.26 474.4 1089.9 508.441 1033.66 508.441C971.201 508.441 919.696 465.816 919.696 384.118C919.696 304.196 971.201 259.499 1033.66 259.499C1090.2 259.499 1134 294.132 1145.25 353.629H1089.9C1083.68 323.732 1061.19 309.228 1033.66 309.228C998.434 309.228 971.201 332.909 971.201 384.118C971.201 435.623 998.138 459.007 1033.66 459.007C1063.56 459.007 1088.42 442.431 1092.27 407.502ZM1273.98 362.213L1374.62 504H1315.42L1240.23 398.918L1214.19 427.335V504H1163.86V264.531H1214.19V363.989L1305.36 264.531H1363.97L1273.98 362.213ZM1478.49 360.733C1516.98 369.317 1564.63 379.974 1564.63 427.927C1564.63 475.288 1528.82 508.441 1459.85 508.441C1402.42 508.441 1366.6 474.992 1366.6 432.071V427.335H1423.44V432.071C1423.44 452.791 1445.64 459.895 1467.84 459.895C1488.85 459.895 1510.17 453.679 1510.17 432.071C1510.17 414.31 1484.71 408.39 1455.11 401.286C1417.52 392.406 1370.45 381.158 1370.45 336.461C1370.45 289.988 1409.23 259.795 1469.02 259.795C1524.08 259.795 1562.56 291.468 1562.56 336.461V341.197H1510.17V336.461C1510.17 318.404 1486.49 307.452 1463.69 307.452C1448.3 307.452 1425.81 314.852 1425.81 332.021C1425.81 348.893 1450.08 354.517 1478.49 360.733Z" fill="#FFDB80"/>
<path d="M1625.64 340H1610.07V279.128H1596.4V264.068H1625.64V340ZM1639.13 281.912C1639.13 278.706 1639.93 275.922 1641.53 273.56C1642.12 272.632 1643.18 271.408 1644.7 269.89C1646.3 268.287 1647.57 267.148 1648.49 266.473C1651.28 264.532 1654.36 263.562 1657.73 263.562H1672.29C1675.75 263.562 1678.95 264.659 1681.91 266.853C1684.86 268.962 1687.22 271.408 1688.99 274.193C1690.26 276.133 1691.31 278.074 1692.16 280.014L1677.22 284.064C1675.87 281.027 1674.1 279.128 1671.91 278.369H1657.86C1657.61 278.369 1657.1 278.706 1656.34 279.381C1655.67 280.056 1655.08 280.773 1654.57 281.533V292.416C1654.65 292.416 1654.78 292.374 1654.95 292.29C1655.12 292.121 1655.24 291.995 1655.33 291.91C1657.52 290.645 1659.17 290.012 1660.26 290.012H1673.81C1677.35 290.012 1680.43 290.94 1683.04 292.796C1683.97 293.471 1685.24 294.61 1686.84 296.213C1688.44 297.732 1689.5 298.913 1690 299.756C1691.61 302.119 1692.41 304.861 1692.41 307.982V322.41C1692.41 325.531 1691.61 328.273 1690 330.636C1688.74 332.576 1686.42 334.896 1683.04 337.596C1680.18 339.621 1677.1 340.633 1673.81 340.633H1657.73C1654.44 340.633 1651.36 339.621 1648.49 337.596C1647.48 336.837 1646.17 335.698 1644.57 334.179C1643.05 332.66 1642.04 331.479 1641.53 330.636C1639.93 328.442 1639.13 325.742 1639.13 322.536V281.912ZM1654.57 308.489V322.536C1654.99 323.295 1655.58 324.055 1656.34 324.814C1657.1 325.489 1657.61 325.826 1657.86 325.826H1673.81C1674.06 325.826 1674.52 325.531 1675.2 324.941C1675.96 324.266 1676.55 323.549 1676.97 322.789V308.109C1676.55 307.35 1675.91 306.59 1675.07 305.831C1674.31 305.072 1673.81 304.692 1673.55 304.692H1659.38C1658.7 304.692 1658.2 304.776 1657.86 304.945C1656.34 306.211 1655.24 307.392 1654.57 308.489Z" fill="#D9E3FF"/>
<path fill-rule="evenodd" clip-rule="evenodd" d="M181 256L266.933 262.146L308.124 324.009H287.27L316.862 364.749L346.455 324.009H325.601L366.792 262.146L452.725 256V508.069L363.788 495.348V413.275L316.862 455.56L269.937 413.275V495.348L181 508.069V256ZM194.672 270.688V492.299L256.266 483.49V382.55L316.862 437.154L377.459 382.55V483.49L439.053 492.299V270.688L374.455 275.308L351.133 310.334H373.287L316.862 388.014L260.438 310.334H282.592L259.27 275.308L194.672 270.688Z" fill="#FFDB80"/>
<path d="M734.431 611.926C734.431 614.99 733.644 617.68 732.071 619.999C731.574 620.827 730.539 621.986 728.966 623.476C727.476 624.966 726.276 626.042 725.365 626.705C724.703 627.202 723.709 627.781 722.384 628.443L738.529 658H721.639L706.861 629.561H694.939V658H679.787V583.487H716.051C719.694 583.487 722.798 584.439 725.365 586.343C727.849 588.248 730.084 590.524 732.071 593.174C733.644 595.326 734.431 598.058 734.431 601.37V611.926ZM719.28 612.05V600.998C718.452 599.673 717.375 598.679 716.051 598.017H694.939V615.031H716.051C716.299 615.031 716.796 614.7 717.541 614.037C718.369 613.292 718.948 612.63 719.28 612.05ZM797.696 658H750.008V583.487H797.696V598.017H765.159V613.417H796.579V627.947H765.159V643.47H797.696V658ZM866.107 640.241C866.107 643.47 865.362 646.161 863.872 648.314C861.968 651.046 859.774 653.323 857.29 655.144C854.558 657.048 851.412 658 847.851 658H812.83V583.487H847.851C851.329 583.487 854.475 584.48 857.29 586.467C858.118 587.13 859.235 588.206 860.643 589.696C862.133 591.187 863.209 592.346 863.872 593.174C865.362 595.409 866.107 598.183 866.107 601.494V610.436C866.107 614.327 864.741 617.805 862.009 620.868C864.741 623.848 866.107 627.326 866.107 631.3V640.241ZM850.956 640.241V631.176C850.459 630.348 849.838 629.561 849.093 628.816C848.348 628.071 847.851 627.698 847.603 627.698H827.981V643.47H847.727C847.976 643.47 848.472 643.139 849.218 642.477C849.963 641.732 850.542 640.987 850.956 640.241ZM850.956 610.56V601.494C850.459 600.666 849.838 599.88 849.093 599.135C848.348 598.39 847.851 598.017 847.603 598.017H827.981V613.665H847.727C847.976 613.665 848.472 613.334 849.218 612.671C849.963 611.926 850.542 611.223 850.956 610.56ZM935.774 639.496C935.774 642.477 935.028 645.043 933.538 647.196C932.627 648.521 931.179 650.177 929.192 652.164C927.287 654.151 925.756 655.517 924.597 656.262C921.947 657.835 919.215 658.621 916.4 658.621H899.51C896.695 658.621 893.963 657.835 891.314 656.262C890.072 655.517 888.457 654.151 886.47 652.164C884.566 650.094 883.159 648.438 882.248 647.196C880.84 645.126 880.137 642.56 880.137 639.496V602.115C880.137 598.969 880.84 596.361 882.248 594.291C883.159 593.05 884.566 591.435 886.47 589.448C888.457 587.461 890.072 586.095 891.314 585.35C893.963 583.777 896.695 582.99 899.51 582.99H916.4C919.215 582.99 921.947 583.777 924.597 585.35C926.749 586.674 929.73 589.655 933.538 594.291C935.028 596.444 935.774 599.052 935.774 602.115V639.496ZM920.498 639.372V602.115C919.422 600.128 917.973 598.597 916.152 597.52H899.883C898.061 598.845 896.53 600.418 895.288 602.24V639.372C896.944 641.608 898.434 643.139 899.759 643.967H916.027C917.601 642.974 919.091 641.442 920.498 639.372ZM1006.24 639.496C1006.24 642.477 1005.49 645.043 1004 647.196C1003.09 648.521 1001.64 650.177 999.654 652.164C997.75 654.151 996.218 655.517 995.059 656.262C992.41 657.835 989.678 658.621 986.863 658.621H969.973C967.158 658.621 964.426 657.835 961.777 656.262C960.535 655.517 958.92 654.151 956.933 652.164C955.029 650.094 953.622 648.438 952.711 647.196C951.303 645.126 950.6 642.56 950.6 639.496V602.115C950.6 598.969 951.303 596.361 952.711 594.291C953.622 593.05 955.029 591.435 956.933 589.448C958.92 587.461 960.535 586.095 961.777 585.35C964.426 583.777 967.158 582.99 969.973 582.99H986.863C989.678 582.99 992.41 583.777 995.059 585.35C997.212 586.674 1000.19 589.655 1004 594.291C1005.49 596.444 1006.24 599.052 1006.24 602.115V639.496ZM990.961 639.372V602.115C989.885 600.128 988.436 598.597 986.614 597.52H970.346C968.524 598.845 966.993 600.418 965.751 602.24V639.372C967.407 641.608 968.897 643.139 970.222 643.967H986.49C988.063 642.974 989.554 641.442 990.961 639.372ZM1071.73 598.017H1052.36V658H1037.08V598.017H1017.59V583.487H1071.73V598.017Z" fill="#D9E3FF"/>
</g>
<path d="M1625.64 340H1610.07V279.128H1596.4V264.068H1625.64V340ZM1639.13 281.912C1639.13 278.706 1639.93 275.922 1641.53 273.56C1642.12 272.632 1643.18 271.408 1644.7 269.89C1646.3 268.287 1647.57 267.148 1648.49 266.473C1651.28 264.532 1654.36 263.562 1657.73 263.562H1672.29C1675.75 263.562 1678.95 264.659 1681.91 266.853C1684.86 268.962 1687.22 271.408 1688.99 274.193C1690.26 276.133 1691.31 278.074 1692.16 280.014L1677.22 284.064C1675.87 281.027 1674.1 279.128 1671.91 278.369H1657.86C1657.61 278.369 1657.1 278.706 1656.34 279.381C1655.67 280.056 1655.08 280.773 1654.57 281.533V292.416C1654.65 292.416 1654.78 292.374 1654.95 292.29C1655.12 292.121 1655.24 291.995 1655.33 291.91C1657.52 290.645 1659.17 290.012 1660.26 290.012H1673.81C1677.35 290.012 1680.43 290.94 1683.04 292.796C1683.97 293.471 1685.24 294.61 1686.84 296.213C1688.44 297.732 1689.5 298.913 1690 299.756C1691.61 302.119 1692.41 304.861 1692.41 307.982V322.41C1692.41 325.531 1691.61 328.273 1690 330.636C1688.74 332.576 1686.42 334.896 1683.04 337.596C1680.18 339.621 1677.1 340.633 1673.81 340.633H1657.73C1654.44 340.633 1651.36 339.621 1648.49 337.596C1647.48 336.837 1646.17 335.698 1644.57 334.179C1643.05 332.66 1642.04 331.479 1641.53 330.636C1639.93 328.442 1639.13 325.742 1639.13 322.536V281.912ZM1654.57 308.489V322.536C1654.99 323.295 1655.58 324.055 1656.34 324.814C1657.1 325.489 1657.61 325.826 1657.86 325.826H1673.81C1674.06 325.826 1674.52 325.531 1675.2 324.941C1675.96 324.266 1676.55 323.549 1676.97 322.789V308.109C1676.55 307.35 1675.91 306.59 1675.07 305.831C1674.31 305.072 1673.81 304.692 1673.55 304.692H1659.38C1658.7 304.692 1658.2 304.776 1657.86 304.945C1656.34 306.211 1655.24 307.392 1654.57 308.489Z" fill="#D9E3FF"/>
<path d="M554.015 264.531V355.109H654.953V264.531H708.234V504H654.953V403.062H554.015V504H501.029V264.531H554.015ZM886.125 504L867.476 454.567H779.266L760.618 504H710.297L798.211 264.531H853.86L936.742 504H886.125ZM795.843 410.462H850.9L823.371 337.645L795.843 410.462ZM1092.27 407.502H1146.44C1137.26 474.4 1089.9 508.441 1033.66 508.441C971.201 508.441 919.696 465.816 919.696 384.118C919.696 304.196 971.201 259.499 1033.66 259.499C1090.2 259.499 1134 294.132 1145.25 353.629H1089.9C1083.68 323.732 1061.19 309.228 1033.66 309.228C998.434 309.228 971.201 332.909 971.201 384.118C971.201 435.623 998.138 459.007 1033.66 459.007C1063.56 459.007 1088.42 442.431 1092.27 407.502ZM1273.98 362.213L1374.62 504H1315.42L1240.23 398.918L1214.19 427.335V504H1163.86V264.531H1214.19V363.989L1305.36 264.531H1363.97L1273.98 362.213ZM1478.49 360.733C1516.98 369.317 1564.63 379.974 1564.63 427.927C1564.63 475.288 1528.82 508.441 1459.85 508.441C1402.42 508.441 1366.6 474.992 1366.6 432.071V427.335H1423.44V432.071C1423.44 452.791 1445.64 459.895 1467.84 459.895C1488.85 459.895 1510.17 453.679 1510.17 432.071C1510.17 414.31 1484.71 408.39 1455.11 401.286C1417.52 392.406 1370.45 381.158 1370.45 336.461C1370.45 289.988 1409.23 259.795 1469.02 259.795C1524.08 259.795 1562.56 291.468 1562.56 336.461V341.197H1510.17V336.461C1510.17 318.404 1486.49 307.452 1463.69 307.452C1448.3 307.452 1425.81 314.852 1425.81 332.021C1425.81 348.893 1450.08 354.517 1478.49 360.733Z" fill="#FFDB80"/>
<path fill-rule="evenodd" clip-rule="evenodd" d="M996.538 647.196C998.029 645.043 998.774 642.476 998.774 639.496V630H983.498V639.372C982.091 641.441 980.601 642.973 979.028 643.967H962.759C961.434 643.139 959.944 641.607 958.288 639.372V630H943.137V639.496C943.137 642.559 943.841 645.126 945.248 647.196C946.159 648.437 947.566 650.093 949.471 652.163C951.458 654.15 953.072 655.516 954.314 656.261C956.963 657.834 959.695 658.621 962.51 658.621H979.4C982.215 658.621 984.947 657.834 987.597 656.261C988.756 655.516 990.287 654.15 992.192 652.163C994.179 650.176 995.628 648.52 996.538 647.196ZM929.057 630C929.091 630.427 929.107 630.86 929.107 631.299V640.241C929.107 643.47 928.362 646.161 926.872 648.313C924.968 651.045 922.774 653.322 920.29 655.144C917.558 657.048 914.412 658 910.852 658H875.83V630H890.981V643.47H910.727C910.976 643.47 911.473 643.139 912.218 642.476C912.963 641.731 913.542 640.986 913.956 640.241V631.175C913.716 630.774 913.446 630.382 913.146 630L929.057 630ZM828.159 630V643.47H860.697V658H813.008V630H828.159ZM786.235 630L801.529 658H784.639L770.089 630H786.235ZM1100.08 630H1115.36V658H1100.08V630ZM1013.6 630V639.496C1013.6 642.559 1014.3 645.126 1015.71 647.196C1016.62 648.437 1018.03 650.093 1019.93 652.163C1021.92 654.15 1023.53 655.516 1024.78 656.261C1027.43 657.834 1030.16 658.621 1032.97 658.621H1049.86C1052.68 658.621 1055.41 657.834 1058.06 656.261C1059.22 655.516 1060.75 654.15 1062.65 652.163C1064.64 650.176 1066.09 648.52 1067 647.196C1068.49 645.043 1069.24 642.476 1069.24 639.496V630H1053.96V639.372C1052.55 641.441 1051.06 642.973 1049.49 643.967H1033.22C1031.9 643.139 1030.41 641.607 1028.75 639.372V630H1013.6ZM742.788 630V658H757.939V630H742.788Z" fill="#D9E3FF"/>
<path fill-rule="evenodd" clip-rule="evenodd" d="M763.939 630H748.788V583.487H785.051C788.694 583.487 791.798 584.439 794.365 586.343C796.849 588.247 799.084 590.524 801.071 593.173C802.644 595.326 803.431 598.058 803.431 601.37V611.926C803.431 614.989 802.644 617.68 801.071 619.998C800.575 620.826 799.54 621.985 797.967 623.475C796.476 624.966 795.276 626.042 794.365 626.704C793.703 627.201 792.709 627.781 791.385 628.443L792.235 630H776.089L775.861 629.561H763.939V630ZM834.159 630H819.008V583.487H866.697V598.017H834.159V613.416H865.579V627.946H834.159V630ZM935.057 630C934.789 626.563 933.439 623.519 931.009 620.867C933.741 617.804 935.107 614.327 935.107 610.436V601.494C935.107 598.182 934.362 595.409 932.872 593.173C932.21 592.345 931.133 591.186 929.643 589.696C928.236 588.206 927.118 587.129 926.29 586.467C923.475 584.48 920.329 583.487 916.852 583.487H881.83V630H896.981V627.698H916.603C916.852 627.698 917.348 628.07 918.093 628.816C918.477 629.2 918.828 629.595 919.146 630H935.057ZM1004.77 630V602.115C1004.77 599.052 1004.03 596.444 1002.54 594.291C998.73 589.655 995.749 586.674 993.597 585.349C990.947 583.776 988.215 582.99 985.4 582.99H968.51C965.695 582.99 962.963 583.776 960.314 585.349C959.072 586.094 957.458 587.461 955.471 589.448C953.566 591.435 952.159 593.049 951.248 594.291C949.841 596.361 949.137 598.969 949.137 602.115V630H964.288V602.239C965.53 600.418 967.062 598.845 968.883 597.52H985.152C986.973 598.596 988.422 600.128 989.498 602.115V630H1004.77ZM1075.24 630V602.115C1075.24 599.052 1074.49 596.444 1073 594.291C1069.19 589.655 1066.21 586.674 1064.06 585.349C1061.41 583.776 1058.68 582.99 1055.86 582.99H1038.97C1036.16 582.99 1033.43 583.776 1030.78 585.349C1029.53 586.094 1027.92 587.461 1025.93 589.448C1024.03 591.435 1022.62 593.049 1021.71 594.291C1020.3 596.361 1019.6 598.969 1019.6 602.115V630H1034.75V602.239C1035.99 600.418 1037.52 598.845 1039.35 597.52H1055.61C1057.44 598.596 1058.88 600.128 1059.96 602.115V630H1075.24ZM1121.36 630H1106.08V598.017H1086.59V583.487H1140.73V598.017H1121.36V630ZM788.28 600.997V612.05C787.949 612.63 787.369 613.292 786.541 614.037C785.796 614.699 785.299 615.031 785.051 615.031H763.939V598.017H785.051C786.376 598.679 787.452 599.673 788.28 600.997ZM919.956 610.56V601.494C919.46 600.666 918.839 599.879 918.093 599.134C917.348 598.389 916.852 598.017 916.603 598.017H896.981V613.664H916.727C916.976 613.664 917.473 613.333 918.218 612.671C918.963 611.926 919.542 611.222 919.956 610.56Z" fill="#D9E3FF"/>
<path fill-rule="evenodd" clip-rule="evenodd" d="M181 256L266.933 262.146L308.124 324.009H287.27L316.862 364.749L346.455 324.009H325.601L366.792 262.146L452.725 256V508.069L363.788 495.348V413.275L316.862 455.56L269.937 413.275V495.348L181 508.069V256ZM194.672 270.688V492.299L256.266 483.49V382.55L316.862 437.154L377.459 382.55V483.49L439.053 492.299V270.688L374.455 275.308L351.133 310.334H373.287L316.862 388.014L260.438 310.334H282.592L259.27 275.308L194.672 270.688Z" fill="#FFDB80"/>
<defs>
<filter id="filter0_f_10_9" x="-75" y="0.000488281" width="2023.41" height="914.621" filterUnits="userSpaceOnUse" color-interpolation-filters="sRGB">
<feFlood flood-opacity="0" result="BackgroundImageFix"/>
<feBlend mode="normal" in="SourceGraphic" in2="BackgroundImageFix" result="shape"/>
<feGaussianBlur stdDeviation="128" result="effect1_foregroundBlur_10_9"/>
</filter>
</defs>
</svg>
