<svg width="75" height="20" viewBox="0 0 75 20" fill="none" xmlns="http://www.w3.org/2000/svg">
<path d="M5.18951 6.7599C3.40074 6.7599 2.52264 8.33632 2.52264 10.4413V15.7164H0V4.58469H2.47845V7.47268H2.52148C3.05067 5.69705 4.10555 4.26227 5.73265 4.26227C6.87709 4.26227 7.35975 4.66184 7.35975 4.66184L6.22113 6.9545C6.22113 6.95335 5.85826 6.7599 5.18951 6.7599ZM35.6857 8.28795V15.7152H33.2282V9.19189C33.2282 7.31953 32.6409 6.32808 31.1405 6.32808C29.5867 6.32808 28.8354 7.58208 28.8354 9.98758V15.714H26.4V9.19189C26.4 7.39208 25.8196 6.32808 24.3344 6.32808C22.6387 6.32808 21.9862 7.81353 21.9862 9.98758V15.714H19.5078V4.58469H21.9862V7.10535H22.0083C22.3944 5.36081 23.4482 4.28415 25.2264 4.28415C26.9896 4.28415 28.1387 5.23184 28.5749 6.9119C28.9901 5.29517 30.095 4.28415 31.793 4.28415C34.1621 4.28415 35.6857 5.7696 35.6857 8.28795ZM12.3178 4.26227C10.0371 4.26227 8.54489 5.33317 7.86451 7.26656L9.96381 8.03001C10.3464 6.86353 11.1443 6.19911 12.362 6.19911C13.7321 6.19911 14.5369 6.8025 14.5369 7.72832C14.5369 8.67486 13.8961 8.87292 12.4492 9.10668C10.8396 9.36577 7.012 9.45098 7.012 12.6798C7.012 14.5717 8.59374 15.995 10.9698 15.995C12.7563 15.995 13.9728 15.265 14.5357 13.9062H14.5578V15.7152H17.0153V8.86946C17.0142 5.87438 15.5069 4.26227 12.3178 4.26227ZM14.6009 10.4758C14.6009 12.8099 13.446 14.3092 11.6002 14.3092C10.2953 14.3092 9.51255 13.5768 9.51255 12.5209C9.51255 11.5306 10.3174 10.8432 11.8607 10.5599C13.4401 10.2697 14.2357 9.91158 14.6009 9.05256V10.4758ZM44.4272 4.28415C42.5477 4.28415 41.3055 5.31705 40.774 6.86929V4.58469H38.1642V20H40.7519V13.4318H40.774C41.3497 15.113 42.5488 16.0376 44.4272 16.0376C47.4057 16.0376 49.5376 13.5838 49.5376 10.1166C49.5364 6.67353 47.4057 4.28415 44.4272 4.28415ZM43.7852 13.9718C41.7219 13.9718 40.5775 12.4748 40.5775 10.1499C40.5775 7.82504 41.858 6.32808 43.7852 6.32808C45.7112 6.32808 46.9928 7.89759 46.9928 10.1499C46.9928 12.4035 45.7123 13.9718 43.7852 13.9718Z" fill="white"/>
<path d="M75.1723 15.6647V15.7342L65.0721 15.7377V15.6647C66.5286 14.8422 67.5339 14.0044 68.4385 13.1289H72.5858L75.1723 15.6647ZM72.6697 2.51116L70.1096 0H70.0352C70.0352 0 70.0784 4.67989 65.78 8.93615C61.5739 13.1018 56.6276 13.1112 56.6276 13.1112V13.1842L59.2357 15.7389C59.2357 15.7389 64.11 15.7871 68.4157 11.5638C72.7057 7.35462 72.6697 2.51116 72.6697 2.51116Z" fill="white"/>
</svg>
